<svg width="100" height="100" viewBox="0 0 100 100" fill="none" xmlns="http://www.w3.org/2000/svg">
<circle cx="50" cy="50" r="50" fill="#17233B"/>
<path d="M50.6693 59.4909C50.4417 59.7184 50.1253 59.8031 49.831 59.7464C49.6536 59.7131 49.4843 59.6288 49.3476 59.4922L42.7268 52.8714C42.3624 52.5067 42.3679 51.9103 42.7323 51.5456C43.097 51.1809 43.694 51.1749 44.0588 51.5394L50.016 57.4966L56.0161 51.4966C56.3809 51.1321 56.9738 51.134 57.3385 51.4986C57.7029 51.8633 57.7042 52.4556 57.3398 52.8203L50.6693 59.4909Z" fill="#8197AB"/>
<path fill-rule="evenodd" clip-rule="evenodd" d="M50.0348 39C50.5507 39 50.9707 39.4182 50.9707 39.934L50.9707 56.9018C50.9707 57.4177 50.5507 57.8359 50.0348 57.8359C49.519 57.8359 49.0989 57.4177 49.0989 56.9018L49.0989 39.934C49.099 39.4182 49.519 39 50.0348 39Z" fill="#8197AB"/>
</svg>
