<svg width="200" height="200" viewBox="0 0 200 200" fill="none" xmlns="http://www.w3.org/2000/svg">
<path d="M93.4045 124.851C79.2924 124.851 67.7949 113.604 67.7949 99.8145C67.7949 86.0247 79.2924 74.7422 93.4045 74.7422H94.0492V83.0877H93.4045C84.0203 83.0877 76.3195 90.5735 76.3195 99.7787C76.3195 108.984 83.9845 116.47 93.4045 116.47H94.0492V124.815H93.4045V124.851ZM130.798 124.851C116.686 124.851 105.188 113.604 105.188 99.8145C105.188 86.0247 116.722 74.7422 130.834 74.7422H131.479V83.0877H130.834C122.99 83.0877 116.364 88.317 114.358 95.3731H127.861V103.396H114.143C115.826 110.846 122.667 116.47 130.798 116.47H131.443V124.815C131.264 124.851 131.049 124.851 130.798 124.851Z" fill="#F8F0E8"/>
</svg>
