<svg width="200" height="200" viewBox="0 0 200 200" fill="none" xmlns="http://www.w3.org/2000/svg">
<path d="M139.139 120.156C141.191 120.156 142.915 121.783 142.915 123.913C142.915 126.043 141.191 127.708 139.139 127.708C137.086 127.708 135.344 126.081 135.344 123.913C135.344 121.745 137.086 120.156 139.139 120.156ZM139.139 120.718C137.396 120.718 136.021 122.112 136.021 123.913C136.022 125.714 137.377 127.146 139.139 127.146C140.881 127.146 142.237 125.752 142.237 123.913C142.237 122.074 140.881 120.718 139.139 120.718ZM102.698 72C110.637 72 114.955 75.6595 115.188 88.4385H106.493C106.493 83.1528 105.525 79.8028 102.582 79.8027C100.026 79.8027 98.1868 81.8555 98.7676 85.5537C100.278 95.2738 115.613 97.4042 115.903 112.313C116.155 125.247 106.474 127.145 102.233 127.145C92.978 127.145 87.866 120.697 88.292 110.377H97.9346C97.9346 115.527 98.0898 119.09 102.427 119.09C104.595 119.09 105.642 116.883 105.642 113.224C105.642 103.523 89.2609 102.419 89.2607 86.3867C89.2607 77.9639 93.0943 72 102.698 72ZM75.7041 98.6055V72.3887H84.8438V126.256H77.001L67.1455 97.9668V126.508H57V72.3887H65.8291L75.7041 98.6055ZM142.216 80.6758H130.521V94.4814H138.924V103.775H130.521V126.275H119.852V72.3887H142.216V80.6758ZM139.371 121.725C140.417 121.725 140.92 122.131 140.92 122.983C140.92 123.777 140.417 124.106 139.759 124.184L141.017 126.12H140.281L139.081 124.223H138.345V126.12H137.667V121.725H139.371ZM138.345 123.681H139.062C139.662 123.681 140.224 123.641 140.224 122.964C140.224 122.383 139.72 122.286 139.255 122.286H138.345V123.681Z" fill="#F8F0E8"/>
</svg>
