<svg width="1743" height="527" viewBox="0 0 1743 527" fill="none" xmlns="http://www.w3.org/2000/svg">
<path d="M576.072 276.921C586.332 276.921 596.592 276.912 606.852 276.929C608.226 276.929 609.616 276.971 610.974 277.146C611.522 277.212 612.062 277.67 612.096 278.318C612.188 280.065 612.281 281.812 612.281 283.559C612.29 301.859 612.289 320.16 612.289 338.469C612.289 358.524 612.399 378.581 612.247 398.628C612.121 416.363 608.52 433.432 601.127 449.619C588.76 476.745 568.83 496.809 542.182 510.477C528.246 517.622 513.451 522.172 497.956 524.718C485.825 526.714 473.634 527.347 461.393 526.698C435.975 525.342 411.999 518.928 390.164 505.71C365.277 490.654 347.346 469.783 336.968 442.781C332.399 430.878 329.65 418.558 329.068 405.814C328.841 400.757 328.664 395.7 328.647 390.634C328.597 375.253 328.63 359.872 328.63 344.491C328.63 324.244 328.622 303.989 328.639 283.742C328.639 281.995 328.732 280.248 328.833 278.501C328.867 277.736 329.617 277.045 330.393 277.021C331.767 276.971 333.149 276.921 334.523 276.921C341.234 276.913 347.945 276.921 354.655 276.921C363.532 276.921 372.41 276.912 381.287 276.929C382.256 276.937 383.243 277.046 384.195 277.221C384.507 277.279 384.87 277.662 384.996 277.978C385.207 278.51 385.334 279.1 385.351 279.674C385.393 281.421 385.384 283.176 385.384 284.923C385.384 321.141 385.384 357.36 385.393 393.578C385.393 399.817 385.78 406.023 387.138 412.137C391.85 433.315 403.745 449.27 422.874 459.909C430.133 463.952 437.948 466.605 446.083 468.394C457.548 470.914 469.165 471.363 480.808 470.465C490.873 469.683 500.695 467.596 510.062 463.711C526.695 456.815 539.451 445.735 547.611 429.738C552.745 419.673 555.401 408.959 555.451 397.688C555.535 379.578 555.477 361.469 555.485 343.36C555.485 323.113 555.476 302.866 555.493 282.61C555.493 281.063 555.619 279.516 555.788 277.969C555.814 277.678 556.26 277.245 556.572 277.187C557.533 277.02 558.52 276.937 559.498 276.929C565.02 276.904 570.55 276.921 576.072 276.921Z" fill="url(#paint0_linear_1525_3797)"/>
<path d="M717.175 276.916C718.659 276.899 719.864 277.39 720.893 278.397C721.592 279.087 722.301 279.761 723.018 280.435C756.065 311.72 789.104 343.006 822.159 374.283C846.666 397.475 871.183 420.65 895.698 443.825C896.836 444.898 898.017 445.938 899.23 446.919C899.441 447.085 899.955 446.936 900.301 446.853C900.427 446.819 900.537 446.553 900.562 446.387C900.672 445.813 900.798 445.239 900.807 444.665C900.84 442.918 900.832 441.162 900.832 439.407C900.832 387.792 900.832 336.176 900.841 284.552C900.841 282.605 900.891 280.659 900.967 278.721C901.009 277.706 901.81 277.007 902.914 276.974C903.9 276.94 904.887 276.924 905.873 276.924C921.461 276.924 937.058 276.916 952.654 276.933C953.834 276.933 955.015 277.033 956.187 277.091C956.894 277.124 957.223 277.673 957.434 278.181C957.653 278.705 957.687 279.32 957.695 279.894C957.737 281.649 957.729 283.404 957.729 285.159V518.898C957.72 521.036 957.644 523.174 957.568 525.312C957.551 525.985 956.7 526.743 955.992 526.776C955.006 526.818 954.02 526.851 953.033 526.851C937.049 526.859 921.057 526.859 905.064 526.859C904.078 526.859 903.091 526.835 902.104 526.81C901.295 526.793 900.57 526.518 899.972 525.961C899.112 525.162 898.244 524.363 897.393 523.557C868.308 496.081 839.223 468.597 810.138 441.113C781.483 414.037 752.835 386.951 724.146 359.908C722.966 358.794 722.131 356.956 719.99 357.238C718.743 358.569 719.342 360.216 719.342 361.689C719.3 414.286 719.307 466.875 719.299 519.464C719.299 521.41 719.223 523.357 719.147 525.295C719.122 526.027 718.372 526.726 717.613 526.76C716.425 526.81 715.245 526.851 714.064 526.851C698.662 526.859 683.268 526.859 667.874 526.859C666.685 526.859 665.504 526.834 664.324 526.784C663.313 526.742 662.596 525.96 662.562 524.829C662.512 523.274 662.486 521.718 662.486 520.154V285.251C662.486 283.496 662.47 281.741 662.504 279.985C662.554 277.432 663.026 276.941 665.656 276.933C679.28 276.916 692.895 276.924 706.519 276.924C710.068 276.924 713.626 276.958 717.175 276.916Z" fill="url(#paint1_linear_1525_3797)"/>
<path fill-rule="evenodd" clip-rule="evenodd" d="M2.60547 277.034C4.578 276.993 6.54211 276.927 8.51465 276.927C68.8934 276.918 129.264 276.918 189.643 276.918C194.768 276.918 199.877 277.084 204.994 277.658C221.863 279.563 237.09 285.536 250.536 295.692C269.176 309.767 280.876 328.293 285.066 351.068C292.477 391.313 272.042 430.468 234.821 448.369C233.051 449.218 231.264 450.033 229.485 450.873C228.988 451.106 228.827 451.854 229.189 452.328C230.016 453.41 230.834 454.508 231.702 455.564C249.499 477.167 267.304 498.754 285.109 520.356C286.349 521.862 287.571 523.393 288.751 524.948C288.945 525.206 288.987 525.705 288.877 526.013C288.776 526.304 288.397 526.67 288.11 526.703C286.939 526.811 285.75 526.845 284.569 526.845C264.05 526.853 243.53 526.853 223.011 526.853C222.025 526.853 221.038 526.812 220.052 526.812C218.981 526.82 218.188 526.321 217.53 525.539C216.906 524.79 216.275 524.033 215.659 523.284C198.739 502.729 181.828 482.183 164.908 461.628C164.166 460.721 163.399 459.831 162.657 458.925C162 458.135 161.173 457.669 160.128 457.644C158.745 457.619 157.362 457.594 155.979 457.594C125.596 457.585 95.2132 457.585 64.8301 457.594C63.4475 457.594 62.073 457.619 60.6904 457.66C59.5442 457.702 58.7262 458.392 58.667 459.349C58.608 460.122 58.5745 460.905 58.5576 461.679C58.5239 464.407 58.4821 467.136 58.4736 469.855V518.917C58.4736 520.672 58.4984 522.428 58.4141 524.175C58.355 525.605 58.0262 526.646 55.8682 526.629C54.6796 526.621 53.4995 526.646 52.3193 526.646C37.1278 526.646 21.9278 526.654 6.73633 526.646C5.3622 526.646 3.97924 526.57 2.59668 526.528C1.73677 526.636 0.868335 526.737 0 526.845V276.727C0.868335 276.826 1.73713 276.934 2.60547 277.034ZM65.9209 331.368C64.1506 331.368 62.3715 331.376 60.5928 331.426C59.2523 331.459 58.561 332.242 58.502 333.697C58.4682 334.67 58.46 335.644 58.46 336.617C58.46 357.064 58.4515 377.511 58.46 397.957C58.46 399.13 58.5103 400.295 58.5693 401.459C58.6032 402.241 59.3025 403.014 60.0273 403.039C61.7977 403.114 63.5685 403.181 65.3389 403.189H190.843C192.815 403.189 194.797 403.18 196.761 403.089C198.143 403.022 199.535 402.914 200.875 402.623C217.955 398.938 228.619 384.623 229.64 369.6C230.331 359.376 226.967 350.376 220.012 342.831C213.191 335.436 204.668 331.401 194.392 331.368H65.9209Z" fill="url(#paint2_linear_1525_3797)"/>
<path d="M1334.83 278.696C1335.17 278.63 1335.65 278.505 1335.89 278.671C1336.68 279.237 1337.41 279.894 1338.13 280.567C1354.76 296.09 1371.39 311.612 1388.01 327.143C1389.01 328.082 1390 329.022 1390.91 330.054C1391.27 330.461 1391.5 331.077 1391.55 331.626C1391.66 332.782 1391.65 333.956 1391.65 335.12V521.469C1391.65 522.442 1391.65 523.415 1391.62 524.389C1391.56 526.227 1391.01 526.76 1389.12 526.826C1388.72 526.843 1388.33 526.851 1387.93 526.851H1337.61C1337.02 526.851 1336.41 526.841 1335.85 526.685C1335.38 526.551 1334.89 526.069 1334.65 525.611C1334.4 525.121 1334.4 524.48 1334.38 523.906C1334.36 523.029 1334.36 522.151 1334.35 521.274V402.399C1334.35 363.261 1334.35 324.123 1334.36 284.984C1334.36 283.046 1334.49 281.108 1334.57 279.17C1334.58 279.004 1334.71 278.721 1334.83 278.696Z" fill="url(#paint3_linear_1525_3797)"/>
<path d="M1447.77 284.163C1447.77 276.036 1447.02 276.934 1454.97 276.917C1469.39 276.892 1483.8 276.909 1498.21 276.917C1499.78 276.917 1501.37 276.925 1502.94 276.934C1503.96 276.942 1504.88 277.25 1505.63 277.957C1506.78 279.022 1507.93 280.087 1509.07 281.168C1561.92 331.187 1614.77 381.214 1667.62 431.232C1673.18 436.481 1678.81 441.672 1684.41 446.879C1684.81 447.253 1685.73 446.962 1685.81 446.463C1685.9 445.889 1686.07 445.324 1686.08 444.75C1686.12 442.995 1686.1 441.247 1686.1 439.492V285.219C1686.1 283.472 1686.1 281.717 1686.12 279.962C1686.14 277.001 1686.99 276.934 1689.27 276.934C1702.5 276.9 1715.72 276.909 1728.95 276.917C1732.7 276.917 1736.45 276.909 1740.2 276.942C1740.78 276.951 1741.39 277.034 1741.93 277.242C1742.25 277.359 1742.55 277.749 1742.67 278.082C1742.86 278.623 1742.95 279.222 1742.97 279.796C1743.01 281.351 1743 282.907 1743 284.471V519.374C1743 521.321 1742.92 523.267 1742.86 525.214C1742.83 525.979 1742.1 526.694 1741.35 526.736C1740.37 526.795 1739.38 526.844 1738.4 526.844C1722.21 526.852 1706.02 526.852 1689.84 526.844C1689.05 526.844 1688.26 526.828 1687.48 526.803C1686.67 526.786 1685.93 526.569 1685.32 526.012C1684.46 525.213 1683.58 524.423 1682.73 523.616C1653.79 496.274 1624.85 468.923 1595.91 441.572C1567.11 414.363 1538.31 387.145 1509.51 359.943C1508.52 359.004 1507.49 358.089 1506.41 357.24C1506.18 357.057 1505.62 357.049 1505.35 357.198C1505.05 357.348 1504.74 357.772 1504.73 358.088C1504.63 360.034 1504.59 361.981 1504.59 363.928C1504.58 415.735 1504.58 467.551 1504.57 519.366C1504.57 521.304 1504.51 523.251 1504.44 525.197C1504.42 525.979 1503.72 526.695 1502.98 526.736C1502.19 526.786 1501.4 526.844 1500.62 526.844C1484.23 526.844 1467.85 526.844 1451.46 526.836C1450.68 526.836 1449.9 526.719 1449.11 526.645C1448.41 526.57 1448.04 526.004 1447.97 525.488C1447.8 524.141 1447.77 522.768 1447.77 521.412C1447.75 511.089 1447.76 500.766 1447.76 490.442V401.618C1447.76 362.464 1447.75 323.318 1447.77 284.163Z" fill="url(#paint4_linear_1525_3797)"/>
<path fill-rule="evenodd" clip-rule="evenodd" d="M1197.02 276.896C1204.75 276.896 1212.39 277.461 1219.96 279.008C1253.74 285.92 1281.08 311.134 1289.92 344.041C1291.85 351.236 1293 358.565 1292.99 365.969C1292.96 392.429 1283.42 414.997 1263.79 433.173C1250.18 445.775 1233.93 453.337 1215.57 456.356C1209.93 457.28 1204.22 457.621 1198.47 457.612C1156.63 457.562 1114.79 457.588 1072.96 457.588C1071.18 457.588 1069.4 457.579 1067.63 457.629C1067.05 457.637 1066.44 457.737 1065.91 457.945C1065.58 458.07 1065.18 458.47 1065.16 458.777C1065.02 460.316 1064.94 461.872 1064.94 463.428C1064.94 481.928 1064.94 500.428 1064.94 518.928C1064.94 520.674 1064.94 522.43 1064.9 524.185C1064.86 525.94 1064.19 526.564 1062.38 526.622C1061.98 526.639 1061.59 526.639 1061.19 526.639C1044.81 526.647 1028.43 526.647 1012.06 526.639C1011.27 526.639 1010.48 526.555 1009.7 526.497C1009.01 526.439 1008.31 525.674 1008.25 524.909C1008.21 524.335 1008.15 523.752 1008.15 523.17C1008.13 521.606 1008.13 520.05 1008.13 518.495V401.654C1008.13 362.317 1008.13 322.979 1008.14 283.642C1008.14 276.38 1007.47 276.912 1014.68 276.912C1075.46 276.912 1136.25 276.929 1197.02 276.896ZM1068.39 331.374C1067.8 331.382 1067.21 331.441 1066.62 331.491C1065.84 331.558 1065.09 332.24 1065.06 332.955C1065 334.128 1064.95 335.293 1064.95 336.457C1064.94 356.904 1064.95 377.35 1064.94 397.797C1064.94 402.739 1064.79 403.153 1068.57 403.179H1135.56C1156.08 403.179 1176.6 403.179 1197.13 403.171C1199.3 403.171 1201.47 403.179 1203.63 403.037C1205.2 402.937 1206.78 402.713 1208.3 402.355C1227.82 397.797 1238.75 378.158 1235.66 361.612C1233.65 350.832 1228.11 342.513 1218.89 336.573C1213.84 333.321 1208.25 331.524 1202.17 331.399C1200.2 331.358 1198.23 331.366 1196.25 331.366H1072.53C1071.15 331.366 1069.76 331.357 1068.39 331.374Z" fill="url(#paint5_linear_1525_3797)"/>
<path fill-rule="evenodd" clip-rule="evenodd" d="M1391.56 208.932C1391.56 221.193 1391.56 233.455 1391.57 245.708C1391.57 246.199 1391.38 246.473 1390.88 246.49C1390.7 246.498 1390.51 246.49 1390.33 246.44C1390.15 246.382 1389.96 246.298 1389.82 246.174C1389.36 245.799 1388.93 245.408 1388.5 245.001C1377.83 234.902 1367.15 224.795 1356.48 214.688C1345.81 204.59 1335.14 194.483 1324.46 184.384C1315.49 175.9 1306.51 167.432 1297.54 158.955C1287.99 149.938 1278.46 140.912 1268.91 131.895C1259.8 123.286 1250.69 114.676 1241.57 106.058C1232.45 97.4487 1223.31 88.8641 1214.23 80.213C1209.76 75.9623 1210.24 77.0021 1210.23 71.1709C1210.21 49.177 1210.22 27.1831 1210.23 5.18921C1210.23 3.83331 1210.27 2.46909 1210.37 1.11318C1210.4 0.797085 1210.71 0.480985 1210.93 0.189841C1211.18 -0.151214 1212.03 -0.00980139 1212.53 0.431075C1213.42 1.21301 1214.3 1.9783 1215.15 2.78519C1217.56 5.08939 1219.95 7.41022 1222.37 9.70611C1236 22.6662 1249.63 35.6263 1263.28 48.5781C1272.81 57.6118 1282.35 66.6207 1291.9 75.6462C1301.29 84.5386 1310.56 93.5474 1320.1 102.273C1329.94 111.274 1339.43 120.632 1349.1 129.791C1359.22 139.349 1369.31 148.923 1379.43 158.473C1382.14 161.026 1384.98 163.439 1387.65 166.026C1392.19 170.426 1391.6 169.087 1391.63 175.068C1391.66 186.356 1391.64 197.644 1391.64 208.932C1391.61 208.932 1391.59 208.932 1391.56 208.932Z" fill="url(#paint6_linear_1525_3797)"/>
<defs>
<linearGradient id="paint0_linear_1525_3797" x1="1300.93" y1="0" x2="1300.93" y2="548" gradientUnits="userSpaceOnUse">
<stop offset="0.352235" stop-color="white"/>
<stop offset="1" stop-color="white" stop-opacity="0"/>
</linearGradient>
<linearGradient id="paint1_linear_1525_3797" x1="1300.93" y1="0" x2="1300.93" y2="548" gradientUnits="userSpaceOnUse">
<stop offset="0.352235" stop-color="white"/>
<stop offset="1" stop-color="white" stop-opacity="0"/>
</linearGradient>
<linearGradient id="paint2_linear_1525_3797" x1="1300.93" y1="0" x2="1300.93" y2="548" gradientUnits="userSpaceOnUse">
<stop offset="0.352235" stop-color="white"/>
<stop offset="1" stop-color="white" stop-opacity="0"/>
</linearGradient>
<linearGradient id="paint3_linear_1525_3797" x1="1300.93" y1="0" x2="1300.93" y2="548" gradientUnits="userSpaceOnUse">
<stop offset="0.352235" stop-color="white"/>
<stop offset="1" stop-color="white" stop-opacity="0"/>
</linearGradient>
<linearGradient id="paint4_linear_1525_3797" x1="1300.93" y1="0" x2="1300.93" y2="548" gradientUnits="userSpaceOnUse">
<stop offset="0.352235" stop-color="white"/>
<stop offset="1" stop-color="white" stop-opacity="0"/>
</linearGradient>
<linearGradient id="paint5_linear_1525_3797" x1="1300.93" y1="0" x2="1300.93" y2="548" gradientUnits="userSpaceOnUse">
<stop offset="0.352235" stop-color="white"/>
<stop offset="1" stop-color="white" stop-opacity="0"/>
</linearGradient>
<linearGradient id="paint6_linear_1525_3797" x1="1300.93" y1="0" x2="1300.93" y2="548" gradientUnits="userSpaceOnUse">
<stop offset="0.352235" stop-color="white"/>
<stop offset="1" stop-color="white" stop-opacity="0"/>
</linearGradient>
</defs>
</svg>
