<svg width="132" height="132" viewBox="0 0 132 132" fill="none" xmlns="http://www.w3.org/2000/svg">
<path d="M65.3737 56.5404V50.707" stroke="#A38A77" stroke-width="2.5" stroke-linecap="round" stroke-linejoin="round"/>
<path d="M72.0397 56.5404V53.207" stroke="#A38A77" stroke-width="2.5" stroke-linecap="round" stroke-linejoin="round"/>
<path d="M58.7077 56.5404V53.207" stroke="#A38A77" stroke-width="2.5" stroke-linecap="round" stroke-linejoin="round"/>
<path fill-rule="evenodd" clip-rule="evenodd" d="M82.0404 61.5403H48.707C48.707 66.195 51.6885 70.2926 56.207 72.6776C58.8369 74.0657 61.9874 74.8736 65.3737 74.8736C68.76 74.8736 71.9105 74.0657 74.5404 72.6776C79.0589 70.2926 82.0404 66.195 82.0404 61.5403Z" stroke="#A38A77" stroke-width="2.5" stroke-linecap="round" stroke-linejoin="round"/>
<path d="M54.0957 79.8737H76.651" stroke="#A38A77" stroke-width="2.5" stroke-linecap="round" stroke-linejoin="round"/>
<path d="M56.2064 72.6777L52.873 84.0405" stroke="#A38A77" stroke-width="2.5" stroke-linecap="round" stroke-linejoin="round"/>
<path d="M74.541 72.6777L77.8743 84.0405" stroke="#A38A77" stroke-width="2.5" stroke-linecap="round" stroke-linejoin="round"/>
<path d="M62.041 68.2069H68.7077" stroke="#A38A77" stroke-width="2.5" stroke-linecap="round" stroke-linejoin="round"/>
<path d="M25.043 107.066L25.3965 106.713L25.043 106.359L24.6894 106.713L25.043 107.066ZM43.8545 119.653L43.663 120.115L43.663 120.115L43.8545 119.653ZM66.0557 124.054H66.5557V123.554H66.0557V124.054ZM66.0557 125.054V125.554H66.5557V125.054H66.0557ZM43.4717 120.577L43.2802 121.039L43.2802 121.039L43.4717 120.577ZM24.3359 107.773L23.9824 107.42L23.6288 107.773L23.9824 108.127L24.3359 107.773ZM107.774 107.773L108.128 108.127L108.482 107.773L108.128 107.42L107.774 107.773ZM88.6387 120.577L88.1768 120.769L88.3682 121.231L88.8302 121.039L88.6387 120.577ZM88.2559 119.653L88.0643 119.191L87.6026 119.383L87.7939 119.845L88.2559 119.653ZM107.067 107.066L107.421 106.713L107.067 106.359L106.714 106.713L107.067 107.066ZM107.773 24.335L108.127 23.9814L107.773 23.6279L107.42 23.9814L107.773 24.335ZM120.577 43.4707L121.039 43.2792L121.039 43.2792L120.577 43.4707ZM125.054 66.0547L125.554 66.0547V66.0547H125.054ZM120.577 88.6377L120.386 89.0996L120.848 89.291L121.039 88.8292L120.577 88.6377ZM119.653 88.2549L119.191 88.0634L119 88.5253L119.462 88.7168L119.653 88.2549ZM124.054 66.0547L124.554 66.0547V66.0547H124.054ZM119.653 43.8535L120.115 43.662L120.115 43.662L119.653 43.8535ZM107.066 25.042L106.713 24.6884L106.359 25.042L106.713 25.3955L107.066 25.042ZM24.6885 24.6875L24.3349 25.0411L24.3354 25.0415L24.6885 24.6875ZM25.043 25.041L25.3965 25.3946L25.7506 25.0405L25.396 24.687L25.043 25.041ZM12.4551 43.8525L11.9932 43.661L11.9932 43.661L12.4551 43.8525ZM8.05469 66.0537L7.55469 66.0537L7.55469 66.0537L8.05469 66.0537ZM12.4551 88.2539L12.6465 88.7158L13.1085 88.5244L12.9169 88.0624L12.4551 88.2539ZM11.5312 88.6367L11.0694 88.8282L11.2609 89.29L11.7227 89.0986L11.5312 88.6367ZM7.05469 66.0537L6.55469 66.0537L6.55469 66.0537L7.05469 66.0537ZM11.5312 43.4697L11.0694 43.2782L11.0694 43.2782L11.5312 43.4697ZM24.335 24.334L24.6885 23.9804L24.335 23.6269L23.9814 23.9804L24.335 24.334ZM66.0547 7.05371L66.0547 6.55371H66.0547V7.05371ZM88.6377 11.5303L89.0996 11.7217L89.291 11.2599L88.8292 11.0684L88.6377 11.5303ZM88.2549 12.4541L88.0634 12.916L88.5253 13.1075L88.7168 12.6455L88.2549 12.4541ZM66.0547 8.05371L66.0547 7.55371H66.0547V8.05371ZM43.8535 12.4541L43.3916 12.6455L43.5831 13.1075L44.045 12.916L43.8535 12.4541ZM43.4707 11.5303L43.2792 11.0684L42.8174 11.2599L43.0088 11.7217L43.4707 11.5303ZM25.043 107.066L24.6894 107.42C30.0778 112.808 36.5129 117.15 43.663 120.115L43.8545 119.653L44.046 119.191C37.0189 116.278 30.6936 112.01 25.3965 106.713L25.043 107.066ZM43.8545 119.653L43.663 120.115C50.5603 122.975 58.124 124.554 66.0557 124.554V124.054V123.554C58.2577 123.554 50.824 122.002 44.046 119.191L43.8545 119.653ZM66.0557 124.054H65.5557V125.054H66.0557H66.5557V124.054H66.0557ZM66.0557 125.054V124.554C58.124 124.554 50.5605 122.975 43.6632 120.115L43.4717 120.577L43.2802 121.039C50.2968 123.949 57.9903 125.554 66.0557 125.554V125.054ZM43.4717 120.577L43.6632 120.115C36.513 117.15 30.0779 112.808 24.6895 107.42L24.3359 107.773L23.9824 108.127C29.4622 113.607 36.007 118.023 43.2802 121.039L43.4717 120.577ZM24.3359 107.773L24.6895 108.127L25.3965 107.42L25.043 107.066L24.6894 106.713L23.9824 107.42L24.3359 107.773ZM107.774 107.773L107.421 107.42C102.032 112.808 95.5973 117.15 88.4472 120.115L88.6387 120.577L88.8302 121.039C96.1033 118.023 102.648 113.607 108.128 108.127L107.774 107.773ZM88.6387 120.577L89.1006 120.386L88.7178 119.462L88.2559 119.653L87.7939 119.845L88.1768 120.769L88.6387 120.577ZM88.2559 119.653L88.4474 120.115C95.5974 117.15 102.033 112.808 107.421 107.42L107.067 107.066L106.714 106.713C101.417 112.01 95.0914 116.278 88.0643 119.191L88.2559 119.653ZM107.067 107.066L106.714 107.42L107.421 108.127L107.774 107.773L108.128 107.42L107.421 106.713L107.067 107.066ZM107.773 24.335L107.42 24.6885C112.808 30.077 117.15 36.5121 120.115 43.6622L120.577 43.4707L121.039 43.2792C118.023 36.006 113.607 29.4612 108.127 23.9814L107.773 24.335ZM120.577 43.4707L120.115 43.6622C122.975 50.5594 124.554 58.1231 124.554 66.0547H125.054H125.554C125.554 57.9894 123.948 50.2957 121.039 43.2792L120.577 43.4707ZM125.054 66.0547L124.554 66.0547C124.554 73.9861 122.975 81.5491 120.115 88.4462L120.577 88.6377L121.039 88.8292C123.948 81.8129 125.554 74.1198 125.554 66.0547L125.054 66.0547ZM120.577 88.6377L120.769 88.1758L119.845 87.793L119.653 88.2549L119.462 88.7168L120.386 89.0996L120.577 88.6377ZM119.653 88.2549L120.115 88.4464C122.975 81.5493 124.554 73.9861 124.554 66.0547L124.054 66.0547L123.554 66.0547C123.554 73.8523 122.002 81.2856 119.191 88.0634L119.653 88.2549ZM124.054 66.0547H124.554C124.554 58.1231 122.975 50.5592 120.115 43.662L119.653 43.8535L119.191 44.045C122.002 50.823 123.554 58.2569 123.554 66.0547H124.054ZM119.653 43.8535L120.115 43.662C117.15 36.5119 112.808 30.0769 107.42 24.6884L107.066 25.042L106.713 25.3955C112.01 30.6926 116.278 37.018 119.191 44.045L119.653 43.8535ZM107.066 25.042L107.42 25.3955L108.127 24.6885L107.773 24.335L107.42 23.9814L106.713 24.6884L107.066 25.042ZM24.6885 24.6875L24.3354 25.0415L24.6899 25.3951L25.043 25.041L25.396 24.687L25.0415 24.3335L24.6885 24.6875ZM25.043 25.041L24.6894 24.6875C19.301 30.0758 14.9582 36.5109 11.9932 43.661L12.4551 43.8525L12.9169 44.0441C15.8309 37.017 20.0995 30.6916 25.3965 25.3946L25.043 25.041ZM12.4551 43.8525L11.9932 43.661C9.1332 50.5582 7.55475 58.1222 7.55469 66.0537L8.05469 66.0537L8.55469 66.0537C8.55475 58.2559 10.1064 50.822 12.9169 44.0441L12.4551 43.8525ZM8.05469 66.0537L7.55469 66.0537C7.55475 73.9851 9.13331 81.5483 11.9932 88.4454L12.4551 88.2539L12.9169 88.0624C10.1065 81.2846 8.55475 73.8514 8.55469 66.0537L8.05469 66.0537ZM12.4551 88.2539L12.2637 87.792L11.3398 88.1748L11.5312 88.6367L11.7227 89.0986L12.6465 88.7158L12.4551 88.2539ZM11.5312 88.6367L11.9931 88.4452C9.13326 81.5482 7.55475 73.985 7.55469 66.0537L7.05469 66.0537L6.55469 66.0537C6.55475 74.1188 8.16006 81.8119 11.0694 88.8282L11.5312 88.6367ZM7.05469 66.0537L7.55469 66.0537C7.55475 58.1222 9.13315 50.5584 11.9931 43.6612L11.5312 43.4697L11.0694 43.2782C8.15995 50.2947 6.55475 57.9885 6.55469 66.0537L7.05469 66.0537ZM11.5312 43.4697L11.9931 43.6612C14.958 36.5112 19.3002 30.0759 24.6885 24.6875L24.335 24.334L23.9814 23.9804C18.5017 29.4602 14.0853 36.0052 11.0694 43.2782L11.5312 43.4697ZM24.335 24.334L23.9814 24.6875L24.3349 25.0411L24.6885 24.6875L25.042 24.3339L24.6885 23.9804L24.335 24.334ZM66.0547 7.05371L66.0547 7.55371C73.9862 7.55377 81.549 9.13218 88.4462 11.9921L88.6377 11.5303L88.8292 11.0684C81.8128 8.15898 74.1199 6.55377 66.0547 6.55371L66.0547 7.05371ZM88.6377 11.5303L88.1758 11.3389L87.793 12.2627L88.2549 12.4541L88.7168 12.6455L89.0996 11.7217L88.6377 11.5303ZM88.2549 12.4541L88.4464 11.9922C81.5492 9.13222 73.9862 7.55377 66.0547 7.55371L66.0547 8.05371L66.0547 8.55371C73.8525 8.55377 81.2855 10.1054 88.0634 12.916L88.2549 12.4541ZM66.0547 8.05371V7.55371C58.123 7.55371 50.5593 9.13217 43.662 11.9922L43.8535 12.4541L44.045 12.916C50.8231 10.1054 58.2567 8.55371 66.0547 8.55371V8.05371ZM43.8535 12.4541L44.3154 12.2627L43.9326 11.3389L43.4707 11.5303L43.0088 11.7217L43.3916 12.6455L43.8535 12.4541ZM43.4707 11.5303L43.6622 11.9921C50.5595 9.13212 58.123 7.55371 66.0547 7.55371V7.05371V6.55371C57.9893 6.55371 50.2958 8.15891 43.2792 11.0684L43.4707 11.5303Z" fill="#9DA5B7"/>
<path d="M20.5924 66.049L21.0924 66.0441L21.0875 65.5442L20.5876 65.549L20.5924 66.049ZM24.1203 83.0492L23.6596 83.2436L23.6596 83.2436L24.1203 83.0492ZM33.8804 97.5201L34.2339 97.8736L34.5875 97.5201L34.2339 97.1665L33.8804 97.5201ZM33.1732 98.2272L32.8197 98.5807L33.1732 98.9343L33.5268 98.5807L33.1732 98.2272ZM23.1985 83.438L22.7378 83.6323L22.7378 83.6323L23.1985 83.438ZM19.5911 66.0587L19.5863 65.5587L19.0863 65.5635L19.0912 66.0635L19.5911 66.0587ZM66.0523 112.516L66.0514 113.016L66.5509 113.017L66.5523 112.517L66.0523 112.516ZM48.1848 108.942L47.7228 108.751L47.5317 109.212L47.993 109.404L48.1848 108.942ZM48.5673 108.018L48.7591 107.556L48.2968 107.365L48.1054 107.827L48.5673 108.018ZM66.0551 111.516L66.5551 111.517L66.5565 111.017L66.056 111.016L66.0551 111.516ZM66.062 20.5918L66.0703 21.0918L66.5702 21.0835L66.5619 20.5835L66.062 20.5918ZM48.9181 24.262L48.7216 23.8022L48.7216 23.8022L48.9181 24.262ZM34.2767 34.1912L33.9232 33.8376L33.9232 33.8377L34.2767 34.1912ZM24.3475 48.8326L24.1511 49.2924L24.6108 49.4888L24.8073 49.0291L24.3475 48.8326ZM23.8869 48.6358L24.0834 48.176L24.0831 48.1759L23.8869 48.6358ZM23.427 48.4397L22.9673 48.2432L22.7706 48.7033L23.2309 48.8996L23.427 48.4397ZM33.5696 33.4841L33.2161 33.1305L33.2161 33.1305L33.5696 33.4841ZM48.5245 23.3422L48.328 22.8825L48.328 22.8825L48.5245 23.3422ZM66.0454 19.5919L66.5454 19.5837L66.5371 19.0837L66.0372 19.092L66.0454 19.5919ZM112.517 66.0621L113.017 66.0704L113.025 65.5705L112.525 65.5622L112.517 66.0621ZM108.767 83.583L109.226 83.7795L109.226 83.7795L108.767 83.583ZM98.6248 98.5379L98.9784 98.8915L98.9784 98.8915L98.6248 98.5379ZM83.6692 108.68L83.2093 108.877L83.4056 109.337L83.8657 109.14L83.6692 108.68ZM83.4731 108.221L83.933 108.024L83.9329 108.024L83.4731 108.221ZM83.2763 107.76L83.0798 107.3L82.6201 107.497L82.8165 107.956L83.2763 107.76ZM97.9177 97.8308L98.2713 98.1844L98.2713 98.1844L97.9177 97.8308ZM107.847 83.1894L108.307 83.3859L108.307 83.3859L107.847 83.1894ZM111.517 66.0455L111.525 65.5456L111.025 65.5373L111.017 66.0373L111.517 66.0455ZM98.5806 33.5269L98.9342 33.1734L98.9342 33.1734L98.5806 33.5269ZM108.932 48.1628L109.146 48.615L109.598 48.4016L109.385 47.9493L108.932 48.1628ZM108.028 48.5895L107.576 48.803L107.789 49.255L108.241 49.0417L108.028 48.5895ZM97.8735 34.234L98.2271 33.8805L98.2271 33.8805L97.8735 34.234ZM83.518 24.0797L83.0658 23.8664L82.8525 24.3185L83.3045 24.5319L83.518 24.0797ZM83.9448 23.1751L84.1582 22.723L83.7059 22.5095L83.4925 22.9618L83.9448 23.1751ZM20.5924 66.049L20.0924 66.0538C20.1491 71.8922 21.3391 77.7416 23.6596 83.2436L24.1203 83.0492L24.581 82.8549C22.3115 77.474 21.1478 71.7534 21.0924 66.0441L20.5924 66.049ZM24.1203 83.0492L23.6596 83.2436C25.8981 88.5508 29.1881 93.5349 33.5268 97.8736L33.8804 97.5201L34.2339 97.1665C29.9879 92.9205 26.7701 88.0449 24.581 82.8549L24.1203 83.0492ZM33.8804 97.5201L33.5268 97.1665L32.8197 97.8736L33.1732 98.2272L33.5268 98.5807L34.2339 97.8736L33.8804 97.5201ZM33.1732 98.2272L33.5268 97.8736C29.1881 93.5349 25.8977 88.5509 23.6592 83.2437L23.1985 83.438L22.7378 83.6323C25.0257 89.0568 28.3884 94.1494 32.8197 98.5807L33.1732 98.2272ZM23.1985 83.438L23.6592 83.2437C21.3386 77.7418 20.1478 71.8922 20.0911 66.0538L19.5911 66.0587L19.0912 66.0635C19.1491 72.0311 20.3662 78.0095 22.7378 83.6323L23.1985 83.438ZM19.5911 66.0587L19.596 66.5586L20.5972 66.549L20.5924 66.049L20.5876 65.549L19.5863 65.5587L19.5911 66.0587ZM66.0523 112.516L66.0533 112.016C60.0401 112.005 54.0247 110.826 48.3765 108.48L48.1848 108.942L47.993 109.404C53.7638 111.8 59.9091 113.004 66.0514 113.016L66.0523 112.516ZM48.1848 108.942L48.6467 109.133L49.0293 108.21L48.5673 108.018L48.1054 107.827L47.7228 108.751L48.1848 108.942ZM48.5673 108.018L48.3756 108.48C54.024 110.826 60.0407 112.005 66.0542 112.016L66.0551 111.516L66.056 111.016C60.1718 111.005 54.2849 109.851 48.7591 107.556L48.5673 108.018ZM66.0551 111.516L65.5551 111.514L65.5523 112.514L66.0523 112.516L66.5523 112.517L66.5551 111.517L66.0551 111.516ZM66.062 20.5918L66.0537 20.0919C60.1749 20.1891 54.2771 21.4281 48.7216 23.8022L48.9181 24.262L49.1146 24.7218C54.5507 22.3986 60.3206 21.1868 66.0703 21.0918L66.062 20.5918ZM48.9181 24.262L48.7216 23.8022C43.3626 26.0925 38.3215 29.4394 33.9232 33.8376L34.2767 34.1912L34.6303 34.5448C38.9372 30.2379 43.8714 26.9626 49.1146 24.7218L48.9181 24.262ZM34.2767 34.1912L33.9232 33.8377C29.5249 38.2359 26.1781 43.2771 23.8878 48.6361L24.3475 48.8326L24.8073 49.0291C27.0482 43.7858 30.3233 38.8517 34.6303 34.5448L34.2767 34.1912ZM24.3475 48.8326L24.544 48.3728L24.0834 48.176L23.8869 48.6358L23.6905 49.0956L24.1511 49.2924L24.3475 48.8326ZM23.8869 48.6358L24.0831 48.1759L23.6232 47.9798L23.427 48.4397L23.2309 48.8996L23.6908 49.0957L23.8869 48.6358ZM23.427 48.4397L23.8868 48.6362C26.1772 43.2771 29.5248 38.236 33.9232 33.8377L33.5696 33.4841L33.2161 33.1305C28.7264 37.6202 25.3071 42.7682 22.9673 48.2432L23.427 48.4397ZM33.5696 33.4841L33.9232 33.8377C38.3214 29.4395 43.362 26.0923 48.721 23.802L48.5245 23.3422L48.328 22.8825C42.8532 25.2222 37.7056 28.6411 33.2161 33.1305L33.5696 33.4841ZM48.5245 23.3422L48.721 23.802C54.2766 21.4277 60.1748 20.189 66.0537 20.0919L66.0454 19.5919L66.0372 19.092C60.0292 19.1913 54.0031 20.4571 48.328 22.8825L48.5245 23.3422ZM66.0454 19.5919L65.5455 19.6002L65.5621 20.6001L66.062 20.5918L66.5619 20.5835L66.5454 19.5837L66.0454 19.5919ZM112.517 66.0621L112.017 66.0538C111.92 71.9328 110.681 77.8309 108.307 83.3865L108.767 83.583L109.226 83.7795C111.652 78.1044 112.918 72.0784 113.017 66.0704L112.517 66.0621ZM108.767 83.583L108.307 83.3865C106.017 88.7455 102.669 93.7861 98.2713 98.1844L98.6248 98.5379L98.9784 98.8915C103.468 94.4019 106.887 89.2543 109.226 83.7795L108.767 83.583ZM98.6248 98.5379L98.2713 98.1844C93.8729 102.583 88.8318 105.93 83.4727 108.221L83.6692 108.68L83.8657 109.14C89.3406 106.8 94.4887 103.381 98.9784 98.8915L98.6248 98.5379ZM83.6692 108.68L84.1292 108.484L83.933 108.024L83.4731 108.221L83.0132 108.417L83.2093 108.877L83.6692 108.68ZM83.4731 108.221L83.9329 108.024L83.7361 107.564L83.2763 107.76L82.8165 107.956L83.0133 108.417L83.4731 108.221ZM83.2763 107.76L83.4728 108.22C88.8318 105.929 93.873 102.583 98.2713 98.1844L97.9177 97.8308L97.5642 97.4773C93.2573 101.784 88.323 105.059 83.0798 107.3L83.2763 107.76ZM97.9177 97.8308L98.2713 98.1844C102.669 93.7861 106.016 88.7449 108.307 83.3859L107.847 83.1894L107.387 82.9929C105.146 88.2362 101.871 93.1704 97.5642 97.4773L97.9177 97.8308ZM107.847 83.1894L108.307 83.3859C110.681 77.8304 111.92 71.9327 112.017 66.0538L111.517 66.0455L111.017 66.0373C110.922 71.787 109.71 77.5568 107.387 82.9929L107.847 83.1894ZM111.517 66.0455L111.509 66.5455L112.509 66.562L112.517 66.0621L112.525 65.5622L111.525 65.5456L111.517 66.0455ZM98.5806 33.5269L98.2271 33.8805C102.61 38.2636 106.036 43.1978 108.48 48.3762L108.932 48.1628L109.385 47.9493C106.891 42.6667 103.399 37.6377 98.9342 33.1734L98.5806 33.5269ZM108.932 48.1628L108.719 47.7106L107.814 48.1373L108.028 48.5895L108.241 49.0417L109.146 48.615L108.932 48.1628ZM108.028 48.5895L108.48 48.3761C106.035 43.1977 102.61 38.2636 98.2271 33.8805L97.8735 34.234L97.52 34.5876C101.822 38.8895 105.18 43.7288 107.576 48.803L108.028 48.5895ZM97.8735 34.234L98.2271 33.8805C93.8439 29.4974 88.9098 26.0722 83.7315 23.6276L83.518 24.0797L83.3045 24.5319C88.3787 26.9273 93.218 30.2857 97.52 34.5876L97.8735 34.234ZM83.518 24.0797L83.9702 24.293L84.397 23.3884L83.9448 23.1751L83.4925 22.9618L83.0658 23.8664L83.518 24.0797ZM83.9448 23.1751L83.7313 23.6273C88.9097 26.0719 93.8439 29.4974 98.2271 33.8805L98.5806 33.5269L98.9342 33.1734C94.4698 28.709 89.4409 25.2169 84.1582 22.723L83.9448 23.1751Z" fill="#C5CAD4"/>
</svg>
