<svg width="56" height="56" viewBox="0 0 56 56" fill="none" xmlns="http://www.w3.org/2000/svg">
<path fill-rule="evenodd" clip-rule="evenodd" d="M22.8008 19.2801C27.3508 19.2801 30.9258 15.3729 30.9258 11.1401C30.9258 6.90724 27.3508 3 22.8008 3C18.2508 3 14.6758 6.58163 14.6758 11.1401C14.6758 15.3729 18.2508 19.2801 22.8008 19.2801ZM22.8008 6.25586C25.4008 6.25586 27.6758 8.20948 27.6758 11.1399C27.6758 13.7447 25.4008 16.0239 22.8008 16.0239C20.2008 16.0239 17.9258 13.7447 17.9258 11.1399C17.9258 8.20948 20.2008 6.25586 22.8008 6.25586ZM48.1504 24.8159C48.1504 29.3743 44.5754 32.9559 40.0254 32.9559C35.4754 32.9559 31.9004 29.0487 31.9004 24.8159C31.9004 20.2574 35.4754 16.6758 40.0254 16.6758C44.5754 16.6758 48.1504 20.2574 48.1504 24.8159ZM40.0254 19.9316C42.6254 19.9316 44.9004 22.2109 44.9004 24.8157C44.9004 27.4205 42.6254 29.6997 40.0254 29.6997C37.4254 29.6997 35.1504 27.4205 35.1504 24.8157C35.1504 21.8853 37.4254 19.9316 40.0254 19.9316ZM34.825 36.5365H47.175C52.375 36.5365 54 40.7693 54 42.7229C54 43.6997 49.775 45.0022 49.775 45.0022L28 53.1422H21.825C21.825 53.1422 13.375 49.235 11.75 48.5838C11.75 48.9094 11.425 48.9094 11.1 48.9094H3.625C2.65 48.9094 2 48.2582 2 47.2814V27.7452C2 26.7684 2.65 26.1172 3.625 26.1172H10.775C11.75 26.1172 12.4 26.7684 12.4 27.7452V29.0476C12.6975 29.147 13.0858 29.2463 13.5465 29.3642C14.5954 29.6326 16.0192 29.9969 17.6 30.6756C21.175 32.3036 23.125 33.9317 23.125 33.9317H30.275C30.275 33.9317 32.55 34.2573 34.825 36.5365ZM8.175 45.6532H6.225C5.575 45.6532 5.25 45.3276 5.25 44.6764V30.3499C5.25 29.6987 5.575 29.373 6.225 29.373H8.175C8.825 29.373 9.15 29.6987 9.15 30.3499V44.6764C9.15 45.3276 8.825 45.6532 8.175 45.6532ZM27.3504 49.236L49.7754 41.7472C49.7754 41.7472 50.4254 40.7704 49.7754 40.1192C49.1254 39.468 47.1754 39.468 47.1754 39.468H36.7754C37.1004 39.468 37.1004 39.7936 37.1004 39.7936C38.0754 41.7472 38.4004 43.7008 36.4504 43.7008H19.5504C19.5504 43.7008 18.2504 43.3752 18.2504 41.7472C18.2504 40.4448 19.8754 40.4448 19.8754 40.4448H33.5254C33.5254 40.4448 32.8754 39.1423 31.2504 37.8399C29.9504 36.8631 28.9754 36.8631 28.9754 36.8631H21.1754C21.1754 36.8631 19.8754 35.2351 16.3004 33.6071C13.7004 32.6303 12.7254 32.3047 12.4004 32.3047V44.6776L22.1504 49.236H27.3504Z" fill="#A38A77"/>
</svg>
