<svg width="56" height="56" viewBox="0 0 56 56" fill="none" xmlns="http://www.w3.org/2000/svg">
<path fill-rule="evenodd" clip-rule="evenodd" d="M48.9671 51.423C50.552 51.423 51.8522 50.7646 52.5275 49.6208C53.2027 48.4769 53.1525 47.0206 52.388 45.6313L31.3493 7.22072C30.5736 5.80905 29.3793 5 28.0623 5C26.7453 5 25.5455 5.80905 24.7754 7.22072L16.2315 22.788L16.2371 22.7936H6.49901C4.56256 22.8383 3.00558 24.4173 3 26.3646V47.852C3.00558 49.8216 4.60162 51.423 6.57156 51.4286H28.0232C28.1516 51.4286 28.2744 51.4174 28.3971 51.4063C28.4753 51.4174 28.559 51.423 28.6371 51.423H31.4609H48.9671ZM31.4609 51.423V25.4551C31.0591 23.9542 29.7197 22.8438 28.107 22.7992H19.6468L19.6468 22.7992C19.6189 22.7936 19.591 22.788 19.5631 22.788H20.3165L27.9116 8.94484C27.9619 8.86114 28.0121 8.78303 28.0679 8.70491C28.1293 8.78303 28.1795 8.86114 28.2241 8.94484L49.2573 47.3498C49.3354 47.4837 49.3912 47.6288 49.4191 47.7795C49.274 47.8297 49.1178 47.852 48.9671 47.8464H31.5948L31.4609 51.423ZM6.57785 47.8459L6.57227 47.8403V42.5898H28.0184V47.8403L28.0128 47.8459H6.57785ZM6.57227 39.0082H28.0239V35.4316H6.57227V39.0082ZM6.57617 26.3708C6.57617 26.3708 6.57617 26.3652 6.58175 26.3652H28.0223L28.0279 26.3708V31.8445H6.57617V26.3708Z" fill="#A38A77"/>
</svg>
