<svg width="132" height="132" viewBox="0 0 132 132" fill="none" xmlns="http://www.w3.org/2000/svg">
<path fill-rule="evenodd" clip-rule="evenodd" d="M66.0335 52.7075C57.0166 52.7075 49.707 60.0172 49.707 69.034C49.707 73.3035 51.1058 77.5534 53.7887 80.4626H78.2784C80.9614 77.5534 82.3601 73.3035 82.3601 69.034C82.3601 60.0172 75.0504 52.7075 66.0335 52.7075Z" stroke="#A38A77" stroke-width="2.44898" stroke-linecap="round" stroke-linejoin="round"/>
<circle cx="66.0329" cy="71.4831" r="3.26531" stroke="#A38A77" stroke-width="2.44898" stroke-linecap="round" stroke-linejoin="round"/>
<path d="M66.0332 63.3198V68.2178" stroke="#A38A77" stroke-width="2.44898" stroke-linecap="round" stroke-linejoin="round"/>
<path d="M66.0332 56.7891V58.4217" stroke="#A38A77" stroke-width="2.44898" stroke-linecap="round" stroke-linejoin="round"/>
<path d="M53.7891 69.8505H55.4217" stroke="#A38A77" stroke-width="2.44898" stroke-linecap="round" stroke-linejoin="round"/>
<path d="M57.0547 61.687L58.2091 62.8415" stroke="#A38A77" stroke-width="2.44898" stroke-linecap="round" stroke-linejoin="round"/>
<path d="M76.6465 69.8505H78.2791" stroke="#A38A77" stroke-width="2.44898" stroke-linecap="round" stroke-linejoin="round"/>
<path d="M74.1973 62.8415L75.3517 61.687" stroke="#A38A77" stroke-width="2.44898" stroke-linecap="round" stroke-linejoin="round"/>
<path d="M25.043 107.067L25.3965 106.713L25.043 106.36L24.6894 106.713L25.043 107.067ZM43.8545 119.654L43.663 120.116L43.663 120.116L43.8545 119.654ZM66.0557 124.054H66.5557V123.554H66.0557V124.054ZM66.0557 125.054V125.554H66.5557V125.054H66.0557ZM43.4717 120.578L43.2802 121.04L43.2802 121.04L43.4717 120.578ZM24.3359 107.774L23.9824 107.42L23.6288 107.774L23.9824 108.127L24.3359 107.774ZM107.774 107.774L108.128 108.127L108.482 107.774L108.128 107.42L107.774 107.774ZM88.6387 120.578L88.1768 120.769L88.3682 121.231L88.8302 121.04L88.6387 120.578ZM88.2559 119.654L88.0643 119.192L87.6026 119.383L87.7939 119.845L88.2559 119.654ZM107.067 107.067L107.421 106.713L107.067 106.36L106.714 106.713L107.067 107.067ZM107.773 24.3354L108.127 23.9819L107.773 23.6283L107.42 23.9819L107.773 24.3354ZM120.577 43.4712L121.039 43.2797L121.039 43.2797L120.577 43.4712ZM125.054 66.0552L125.554 66.0552V66.0552H125.054ZM120.577 88.6382L120.386 89.1001L120.848 89.2915L121.039 88.8297L120.577 88.6382ZM119.653 88.2554L119.191 88.0639L119 88.5258L119.462 88.7173L119.653 88.2554ZM124.054 66.0552L124.554 66.0552V66.0552H124.054ZM119.653 43.854L120.115 43.6625L120.115 43.6625L119.653 43.854ZM107.066 25.0425L106.713 24.6889L106.359 25.0425L106.713 25.396L107.066 25.0425ZM24.6885 24.688L24.3349 25.0415L24.3354 25.042L24.6885 24.688ZM25.043 25.0415L25.3965 25.3951L25.7506 25.041L25.396 24.6875L25.043 25.0415ZM12.4551 43.853L11.9932 43.6615L11.9932 43.6615L12.4551 43.853ZM8.05469 66.0542L7.55469 66.0542L7.55469 66.0542L8.05469 66.0542ZM12.4551 88.2544L12.6465 88.7163L13.1085 88.5249L12.9169 88.0629L12.4551 88.2544ZM11.5312 88.6372L11.0694 88.8287L11.2609 89.2905L11.7227 89.0991L11.5312 88.6372ZM7.05469 66.0542L6.55469 66.0542L6.55469 66.0542L7.05469 66.0542ZM11.5312 43.4702L11.0694 43.2787L11.0694 43.2787L11.5312 43.4702ZM24.335 24.3345L24.6885 23.9809L24.335 23.6274L23.9814 23.9809L24.335 24.3345ZM66.0547 7.0542L66.0547 6.5542H66.0547V7.0542ZM88.6377 11.5308L89.0996 11.7222L89.291 11.2604L88.8292 11.0689L88.6377 11.5308ZM88.2549 12.4546L88.0634 12.9165L88.5253 13.108L88.7168 12.646L88.2549 12.4546ZM66.0547 8.0542L66.0547 7.5542H66.0547V8.0542ZM43.8535 12.4546L43.3916 12.646L43.5831 13.108L44.045 12.9165L43.8535 12.4546ZM43.4707 11.5308L43.2792 11.0689L42.8174 11.2604L43.0088 11.7222L43.4707 11.5308ZM25.043 107.067L24.6894 107.42C30.0778 112.809 36.5129 117.151 43.663 120.116L43.8545 119.654L44.046 119.192C37.0189 116.278 30.6936 112.01 25.3965 106.713L25.043 107.067ZM43.8545 119.654L43.663 120.116C50.5603 122.976 58.124 124.554 66.0557 124.554V124.054V123.554C58.2577 123.554 50.824 122.002 44.046 119.192L43.8545 119.654ZM66.0557 124.054H65.5557V125.054H66.0557H66.5557V124.054H66.0557ZM66.0557 125.054V124.554C58.124 124.554 50.5605 122.976 43.6632 120.116L43.4717 120.578L43.2802 121.04C50.2968 123.949 57.9903 125.554 66.0557 125.554V125.054ZM43.4717 120.578L43.6632 120.116C36.513 117.151 30.0779 112.809 24.6895 107.42L24.3359 107.774L23.9824 108.127C29.4622 113.607 36.007 118.024 43.2802 121.04L43.4717 120.578ZM24.3359 107.774L24.6895 108.127L25.3965 107.42L25.043 107.067L24.6894 106.713L23.9824 107.42L24.3359 107.774ZM107.774 107.774L107.421 107.42C102.032 112.809 95.5973 117.151 88.4472 120.116L88.6387 120.578L88.8302 121.04C96.1033 118.024 102.648 113.607 108.128 108.127L107.774 107.774ZM88.6387 120.578L89.1006 120.386L88.7178 119.462L88.2559 119.654L87.7939 119.845L88.1768 120.769L88.6387 120.578ZM88.2559 119.654L88.4474 120.116C95.5974 117.151 102.033 112.809 107.421 107.42L107.067 107.067L106.714 106.713C101.417 112.01 95.0914 116.278 88.0643 119.192L88.2559 119.654ZM107.067 107.067L106.714 107.42L107.421 108.127L107.774 107.774L108.128 107.42L107.421 106.713L107.067 107.067ZM107.773 24.3354L107.42 24.689C112.808 30.0775 117.15 36.5125 120.115 43.6627L120.577 43.4712L121.039 43.2797C118.023 36.0065 113.607 29.4617 108.127 23.9819L107.773 24.3354ZM120.577 43.4712L120.115 43.6627C122.975 50.5599 124.554 58.1236 124.554 66.0552H125.054H125.554C125.554 57.9899 123.948 50.2962 121.039 43.2797L120.577 43.4712ZM125.054 66.0552L124.554 66.0552C124.554 73.9866 122.975 81.5496 120.115 88.4467L120.577 88.6382L121.039 88.8297C123.948 81.8134 125.554 74.1203 125.554 66.0552L125.054 66.0552ZM120.577 88.6382L120.769 88.1763L119.845 87.7935L119.653 88.2554L119.462 88.7173L120.386 89.1001L120.577 88.6382ZM119.653 88.2554L120.115 88.4469C122.975 81.5498 124.554 73.9866 124.554 66.0552L124.054 66.0552L123.554 66.0552C123.554 73.8528 122.002 81.2861 119.191 88.0639L119.653 88.2554ZM124.054 66.0552H124.554C124.554 58.1236 122.975 50.5597 120.115 43.6625L119.653 43.854L119.191 44.0455C122.002 50.8235 123.554 58.2573 123.554 66.0552H124.054ZM119.653 43.854L120.115 43.6625C117.15 36.5124 112.808 30.0773 107.42 24.6889L107.066 25.0425L106.713 25.396C112.01 30.6931 116.278 37.0184 119.191 44.0455L119.653 43.854ZM107.066 25.0425L107.42 25.396L108.127 24.689L107.773 24.3354L107.42 23.9819L106.713 24.6889L107.066 25.0425ZM24.6885 24.688L24.3354 25.042L24.6899 25.3955L25.043 25.0415L25.396 24.6875L25.0415 24.3339L24.6885 24.688ZM25.043 25.0415L24.6894 24.688C19.301 30.0763 14.9582 36.5114 11.9932 43.6615L12.4551 43.853L12.9169 44.0445C15.8309 37.0175 20.0995 30.6921 25.3965 25.3951L25.043 25.0415ZM12.4551 43.853L11.9932 43.6615C9.1332 50.5587 7.55475 58.1226 7.55469 66.0542L8.05469 66.0542L8.55469 66.0542C8.55475 58.2564 10.1064 50.8224 12.9169 44.0445L12.4551 43.853ZM8.05469 66.0542L7.55469 66.0542C7.55475 73.9856 9.13331 81.5488 11.9932 88.4459L12.4551 88.2544L12.9169 88.0629C10.1065 81.2851 8.55475 73.8519 8.55469 66.0542L8.05469 66.0542ZM12.4551 88.2544L12.2637 87.7925L11.3398 88.1753L11.5312 88.6372L11.7227 89.0991L12.6465 88.7163L12.4551 88.2544ZM11.5312 88.6372L11.9931 88.4457C9.13326 81.5486 7.55475 73.9855 7.55469 66.0542L7.05469 66.0542L6.55469 66.0542C6.55475 74.1193 8.16006 81.8124 11.0694 88.8287L11.5312 88.6372ZM7.05469 66.0542L7.55469 66.0542C7.55475 58.1227 9.13315 50.5589 11.9931 43.6617L11.5312 43.4702L11.0694 43.2787C8.15995 50.2952 6.55475 57.989 6.55469 66.0542L7.05469 66.0542ZM11.5312 43.4702L11.9931 43.6617C14.958 36.5117 19.3002 30.0764 24.6885 24.688L24.335 24.3345L23.9814 23.9809C18.5017 29.4607 14.0853 36.0057 11.0694 43.2787L11.5312 43.4702ZM24.335 24.3345L23.9814 24.688L24.3349 25.0415L24.6885 24.688L25.042 24.3344L24.6885 23.9809L24.335 24.3345ZM66.0547 7.0542L66.0547 7.5542C73.9862 7.55426 81.549 9.13267 88.4462 11.9926L88.6377 11.5308L88.8292 11.0689C81.8128 8.15947 74.1199 6.55426 66.0547 6.5542L66.0547 7.0542ZM88.6377 11.5308L88.1758 11.3394L87.793 12.2632L88.2549 12.4546L88.7168 12.646L89.0996 11.7222L88.6377 11.5308ZM88.2549 12.4546L88.4464 11.9927C81.5492 9.13271 73.9862 7.55426 66.0547 7.5542L66.0547 8.0542L66.0547 8.5542C73.8525 8.55426 81.2855 10.1059 88.0634 12.9165L88.2549 12.4546ZM66.0547 8.0542V7.5542C58.123 7.5542 50.5593 9.13265 43.662 11.9927L43.8535 12.4546L44.045 12.9165C50.8231 10.1059 58.2567 8.5542 66.0547 8.5542V8.0542ZM43.8535 12.4546L44.3154 12.2632L43.9326 11.3394L43.4707 11.5308L43.0088 11.7222L43.3916 12.646L43.8535 12.4546ZM43.4707 11.5308L43.6622 11.9926C50.5595 9.13261 58.123 7.5542 66.0547 7.5542V7.0542V6.5542C57.9893 6.5542 50.2958 8.1594 43.2792 11.0689L43.4707 11.5308Z" fill="#9DA5B7"/>
<path d="M20.5927 66.0497L21.0927 66.0448L21.0878 65.5449L20.5879 65.5497L20.5927 66.0497ZM24.1206 83.0499L23.6599 83.2442L23.6599 83.2443L24.1206 83.0499ZM33.8806 97.5208L34.2342 97.8743L34.5877 97.5208L34.2342 97.1672L33.8806 97.5208ZM33.1735 98.2279L32.82 98.5814L33.1735 98.935L33.5271 98.5814L33.1735 98.2279ZM23.1988 83.4387L22.7381 83.633L22.7381 83.633L23.1988 83.4387ZM19.5914 66.0593L19.5866 65.5594L19.0866 65.5642L19.0914 66.0642L19.5914 66.0593ZM66.0526 112.516L66.0517 113.016L66.5512 113.017L66.5526 112.518L66.0526 112.516ZM48.185 108.943L47.7231 108.752L47.532 109.213L47.9933 109.405L48.185 108.943ZM48.5676 108.019L48.7594 107.557L48.2971 107.365L48.1056 107.828L48.5676 108.019ZM66.0554 111.517L66.5554 111.518L66.5568 111.017L66.0563 111.017L66.0554 111.517ZM66.0623 20.5925L66.0705 21.0925L66.5705 21.0842L66.5622 20.5842L66.0623 20.5925ZM48.9184 24.2627L48.7219 23.8029L48.7219 23.8029L48.9184 24.2627ZM34.277 34.1919L33.9235 33.8383L33.9235 33.8383L34.277 34.1919ZM24.3478 48.8333L24.1514 49.2931L24.6111 49.4895L24.8076 49.0298L24.3478 48.8333ZM23.8872 48.6365L24.0837 48.1767L24.0834 48.1766L23.8872 48.6365ZM23.4273 48.4404L22.9676 48.2439L22.7709 48.704L23.2312 48.9003L23.4273 48.4404ZM33.5699 33.4848L33.2163 33.1312L33.2163 33.1312L33.5699 33.4848ZM48.5248 23.3429L48.3283 22.8831L48.3283 22.8831L48.5248 23.3429ZM66.0457 19.5926L66.5456 19.5843L66.5374 19.0844L66.0374 19.0927L66.0457 19.5926ZM112.517 66.0628L113.017 66.0711L113.025 65.5712L112.526 65.5629L112.517 66.0628ZM108.767 83.5837L109.227 83.7802L109.227 83.7802L108.767 83.5837ZM98.6251 98.5386L98.9787 98.8922L98.9787 98.8922L98.6251 98.5386ZM83.6695 108.681L83.2096 108.877L83.4059 109.338L83.866 109.141L83.6695 108.681ZM83.4734 108.221L83.9333 108.025L83.9332 108.025L83.4734 108.221ZM83.2766 107.761L83.0801 107.301L82.6204 107.497L82.8168 107.957L83.2766 107.761ZM97.918 97.8315L98.2715 98.1851L98.2716 98.1851L97.918 97.8315ZM107.847 83.1901L108.307 83.3866L108.307 83.3866L107.847 83.1901ZM111.517 66.0462L111.526 65.5463L111.026 65.538L111.017 66.038L111.517 66.0462ZM98.5816 33.5269L98.9352 33.1734L98.9352 33.1734L98.5816 33.5269ZM108.933 48.1628L109.147 48.615L109.599 48.4016L109.386 47.9493L108.933 48.1628ZM108.029 48.5895L107.577 48.803L107.79 49.255L108.242 49.0417L108.029 48.5895ZM97.8745 34.234L98.228 33.8805L98.228 33.8805L97.8745 34.234ZM83.519 24.0797L83.0668 23.8664L82.8535 24.3185L83.3055 24.5319L83.519 24.0797ZM83.9457 23.1751L84.1592 22.723L83.7069 22.5095L83.4935 22.9618L83.9457 23.1751ZM20.5927 66.0497L20.0927 66.0545C20.1494 71.8929 21.3394 77.7424 23.6599 83.2442L24.1206 83.0499L24.5813 82.8556C22.3118 77.4748 21.1481 71.754 21.0927 66.0448L20.5927 66.0497ZM24.1206 83.0499L23.6599 83.2443C25.8984 88.5514 29.1884 93.5357 33.5271 97.8743L33.8806 97.5208L34.2342 97.1672C29.9882 92.9213 26.7704 88.0456 24.5813 82.8556L24.1206 83.0499ZM33.8806 97.5208L33.5271 97.1672L32.82 97.8743L33.1735 98.2279L33.5271 98.5814L34.2342 97.8743L33.8806 97.5208ZM33.1735 98.2279L33.5271 97.8743C29.1885 93.5357 25.898 88.5516 23.6595 83.2444L23.1988 83.4387L22.7381 83.633C25.026 89.0575 28.3887 94.1501 32.82 98.5814L33.1735 98.2279ZM23.1988 83.4387L23.6595 83.2444C21.3389 77.7426 20.1481 71.8928 20.0914 66.0545L19.5914 66.0593L19.0914 66.0642C19.1494 72.0317 20.3665 78.0103 22.7381 83.633L23.1988 83.4387ZM19.5914 66.0593L19.5962 66.5593L20.5975 66.5497L20.5927 66.0497L20.5879 65.5497L19.5866 65.5594L19.5914 66.0593ZM66.0526 112.516L66.0535 112.016C60.0404 112.005 54.025 110.827 48.3768 108.481L48.185 108.943L47.9933 109.405C53.7641 111.801 59.9094 113.005 66.0517 113.016L66.0526 112.516ZM48.185 108.943L48.647 109.134L49.0296 108.21L48.5676 108.019L48.1056 107.828L47.7231 108.752L48.185 108.943ZM48.5676 108.019L48.3758 108.481C54.0243 110.826 60.041 112.005 66.0545 112.017L66.0554 111.517L66.0563 111.017C60.1721 111.006 54.2852 109.852 48.7594 107.557L48.5676 108.019ZM66.0554 111.517L65.5554 111.515L65.5526 112.515L66.0526 112.516L66.5526 112.518L66.5554 111.518L66.0554 111.517ZM66.0623 20.5925L66.054 20.0926C60.1752 20.1898 54.2774 21.4287 48.7219 23.8029L48.9184 24.2627L49.1149 24.7225C54.551 22.3993 60.3208 21.1875 66.0705 21.0925L66.0623 20.5925ZM48.9184 24.2627L48.7219 23.8029C43.3628 26.0932 38.3218 29.4401 33.9235 33.8383L34.277 34.1919L34.6306 34.5455C38.9375 30.2385 43.8716 26.9633 49.1149 24.7225L48.9184 24.2627ZM34.277 34.1919L33.9235 33.8383C29.5251 38.2367 26.1784 43.2777 23.888 48.6368L24.3478 48.8333L24.8076 49.0298C27.0484 43.7865 30.3236 38.8524 34.6306 34.5454L34.277 34.1919ZM24.3478 48.8333L24.5443 48.3735L24.0837 48.1767L23.8872 48.6365L23.6908 49.0963L24.1514 49.2931L24.3478 48.8333ZM23.8872 48.6365L24.0834 48.1766L23.6235 47.9804L23.4273 48.4404L23.2312 48.9003L23.6911 49.0964L23.8872 48.6365ZM23.4273 48.4404L23.8871 48.6369C26.1774 43.2777 29.5251 38.2367 33.9235 33.8383L33.5699 33.4848L33.2163 33.1312C28.7267 37.6209 25.3074 42.7689 22.9676 48.2439L23.4273 48.4404ZM33.5699 33.4848L33.9235 33.8383C38.3217 29.4401 43.3623 26.093 48.7213 23.8027L48.5248 23.3429L48.3283 22.8831C42.8535 25.223 37.7059 28.6417 33.2163 33.1312L33.5699 33.4848ZM48.5248 23.3429L48.7213 23.8027C54.2769 21.4284 60.1751 20.1897 66.054 20.0926L66.0457 19.5926L66.0374 19.0927C60.0295 19.192 54.0034 20.4578 48.3283 22.8831L48.5248 23.3429ZM66.0457 19.5926L65.5458 19.6009L65.5624 20.6008L66.0623 20.5925L66.5622 20.5842L66.5456 19.5843L66.0457 19.5926ZM112.517 66.0628L112.017 66.0545C111.92 71.9334 110.681 77.8317 108.307 83.3872L108.767 83.5837L109.227 83.7802C111.652 78.1052 112.918 72.079 113.017 66.0711L112.517 66.0628ZM108.767 83.5837L108.307 83.3872C106.017 88.7461 102.67 93.7869 98.2715 98.1851L98.6251 98.5386L98.9787 98.8922C103.468 94.4027 106.887 89.2549 109.227 83.7802L108.767 83.5837ZM98.6251 98.5386L98.2716 98.1851C93.8733 102.583 88.832 105.931 83.473 108.221L83.6695 108.681L83.866 109.141C89.3409 106.801 94.4891 103.382 98.9787 98.8922L98.6251 98.5386ZM83.6695 108.681L84.1294 108.485L83.9333 108.025L83.4734 108.221L83.0135 108.417L83.2096 108.877L83.6695 108.681ZM83.4734 108.221L83.9332 108.025L83.7364 107.564L83.2766 107.761L82.8168 107.957L83.0136 108.418L83.4734 108.221ZM83.2766 107.761L83.4731 108.22C88.832 105.93 93.8733 102.583 98.2715 98.1851L97.918 97.8315L97.5644 97.4779C93.2576 101.785 88.3233 105.06 83.0801 107.301L83.2766 107.761ZM97.918 97.8315L98.2716 98.1851C102.67 93.7868 106.017 88.7455 108.307 83.3866L107.847 83.1901L107.387 82.9936C105.147 88.2368 101.871 93.1711 97.5644 97.478L97.918 97.8315ZM107.847 83.1901L108.307 83.3866C110.681 77.8311 111.92 71.9333 112.017 66.0545L111.517 66.0462L111.017 66.038C110.922 71.7876 109.711 77.5576 107.387 82.9936L107.847 83.1901ZM111.517 66.0462L111.509 66.5462L112.509 66.5627L112.517 66.0628L112.526 65.5629L111.526 65.5463L111.517 66.0462ZM98.5816 33.5269L98.228 33.8805C102.611 38.2637 106.037 43.1978 108.481 48.3762L108.933 48.1628L109.386 47.9493C106.892 42.6666 103.4 37.6378 98.9352 33.1734L98.5816 33.5269ZM108.933 48.1628L108.72 47.7106L107.815 48.1373L108.029 48.5895L108.242 49.0417L109.147 48.615L108.933 48.1628ZM108.029 48.5895L108.481 48.3761C106.036 43.1977 102.611 38.2636 98.228 33.8805L97.8745 34.234L97.5209 34.5876C101.823 38.8895 105.181 43.7288 107.577 48.803L108.029 48.5895ZM97.8745 34.234L98.228 33.8805C93.8449 29.4973 88.9109 26.0723 83.7324 23.6276L83.519 24.0797L83.3055 24.5319C88.3797 26.9274 93.219 30.2856 97.5209 34.5876L97.8745 34.234ZM83.519 24.0797L83.9712 24.293L84.3979 23.3884L83.9457 23.1751L83.4935 22.9618L83.0668 23.8664L83.519 24.0797ZM83.9457 23.1751L83.7323 23.6273C88.9108 26.072 93.8448 29.4972 98.228 33.8805L98.5816 33.5269L98.9352 33.1734C94.4707 28.7089 89.4419 25.2169 84.1592 22.723L83.9457 23.1751Z" fill="#C5CAD4"/>
</svg>
