<svg width="56" height="56" viewBox="0 0 56 56" fill="none" xmlns="http://www.w3.org/2000/svg">
<path d="M16.6953 7C16.7586 7.0001 26.3898 7.03214 26.3828 16.6953V26.3828H16.6953C7.03215 26.3828 7.0001 16.7585 7 16.6953V7H16.6953ZM10.2344 10.2344V16.6953C10.2554 18.1863 10.7944 23.1562 16.6953 23.1562H23.1562V16.6953C23.1562 10.5424 17.7733 10.2344 16.6953 10.2344H10.2344Z" fill="#A38A77"/>
<path d="M49 7V16.6953C48.9999 16.7586 48.9683 26.3895 39.3057 26.3828H29.6172V16.6953C29.6172 7.00031 39.3057 7 39.3057 7H49ZM39.3047 10.2344C37.8136 10.2554 32.8438 10.7945 32.8438 16.6953V23.1562H39.3047C45.4577 23.1563 45.7656 17.7733 45.7656 16.6953V10.2344H39.3047Z" fill="#A38A77"/>
<path d="M39.3057 29.6094C49.0002 29.6097 49 39.3047 49 39.3047V48.999H39.3057C39.3057 48.999 29.6104 48.9994 29.6172 39.3047V29.6094H39.3057ZM32.8438 32.8438V39.3047C32.8438 45.4506 38.2265 45.7656 39.3047 45.7656H45.7656V39.3047C45.7446 37.8136 45.2056 32.8438 39.3047 32.8438H32.8438Z" fill="#A38A77"/>
<path d="M26.3828 29.6094V39.3047C26.3826 48.9675 16.7586 48.9989 16.6953 48.999H7V39.3047C7 39.3047 7.00031 29.6094 16.6953 29.6094H26.3828ZM16.6953 32.8438C10.5425 32.8438 10.2344 38.2265 10.2344 39.3047V45.7656H16.6953C18.1863 45.7446 23.1562 45.2057 23.1562 39.3047V32.8438H16.6953Z" fill="#A38A77"/>
</svg>
