<svg width="132" height="132" viewBox="0 0 132 132" fill="none" xmlns="http://www.w3.org/2000/svg">
<path d="M58.707 65.0404L53.707 56.707L48.707 65.0404" stroke="#A38A77" stroke-width="2.5" stroke-linecap="round" stroke-linejoin="round"/>
<path fill-rule="evenodd" clip-rule="evenodd" d="M53.707 70.0403C56.4684 70.0403 58.707 67.8017 58.707 65.0403H48.707C48.707 67.8017 50.9456 70.0403 53.707 70.0403Z" stroke="#A38A77" stroke-width="2.5" stroke-linecap="round" stroke-linejoin="round"/>
<path d="M82.04 65.0404L77.04 56.707L72.04 65.0404" stroke="#A38A77" stroke-width="2.5" stroke-linecap="round" stroke-linejoin="round"/>
<path fill-rule="evenodd" clip-rule="evenodd" d="M77.04 70.0403C79.8015 70.0403 82.04 67.8017 82.04 65.0403H72.04C72.04 67.8017 74.2786 70.0403 77.04 70.0403Z" stroke="#A38A77" stroke-width="2.5" stroke-linecap="round" stroke-linejoin="round"/>
<path d="M65.3737 51.707V81.707" stroke="#A38A77" stroke-width="2.5" stroke-linecap="round" stroke-linejoin="round"/>
<path d="M53.707 56.7069H65.3737H77.0404" stroke="#A38A77" stroke-width="2.5" stroke-linecap="round" stroke-linejoin="round"/>
<path d="M53.707 56.7069H65.3737H77.0404" stroke="#A38A77" stroke-width="2.5" stroke-linecap="round" stroke-linejoin="round"/>
<path d="M77.0404 81.7069H65.3737H53.707" stroke="#A38A77" stroke-width="2.5" stroke-linecap="round" stroke-linejoin="round"/>
<path d="M25.041 107.066L25.3946 106.713L25.041 106.359L24.6875 106.713L25.041 107.066ZM43.8525 119.653L43.661 120.115L43.661 120.115L43.8525 119.653ZM66.0537 124.054H66.5537V123.554H66.0537V124.054ZM66.0537 125.054V125.554H66.5537V125.054H66.0537ZM43.4697 120.577L43.2782 121.039L43.2782 121.039L43.4697 120.577ZM24.334 107.773L23.9804 107.42L23.6269 107.773L23.9804 108.127L24.334 107.773ZM107.773 107.773L108.127 108.127L108.481 107.773L108.127 107.42L107.773 107.773ZM88.6377 120.577L88.1758 120.769L88.3672 121.231L88.8292 121.039L88.6377 120.577ZM88.2549 119.653L88.0634 119.191L87.6016 119.383L87.793 119.845L88.2549 119.653ZM107.066 107.066L107.42 106.713L107.066 106.359L106.713 106.713L107.066 107.066ZM107.773 24.335L108.127 23.9814L107.773 23.6279L107.42 23.9814L107.773 24.335ZM120.577 43.4707L121.039 43.2792L121.039 43.2792L120.577 43.4707ZM125.054 66.0547L125.554 66.0547V66.0547H125.054ZM120.577 88.6377L120.386 89.0996L120.848 89.291L121.039 88.8292L120.577 88.6377ZM119.653 88.2549L119.191 88.0634L119 88.5253L119.462 88.7168L119.653 88.2549ZM124.054 66.0547L124.554 66.0547V66.0547H124.054ZM119.653 43.8535L120.115 43.662L120.115 43.662L119.653 43.8535ZM107.066 25.042L106.713 24.6884L106.359 25.042L106.713 25.3955L107.066 25.042ZM24.6875 24.6875L24.3339 25.0411L24.3344 25.0415L24.6875 24.6875ZM25.042 25.041L25.3955 25.3946L25.7496 25.0405L25.3951 24.687L25.042 25.041ZM12.4541 43.8525L11.9922 43.661L11.9922 43.661L12.4541 43.8525ZM8.05371 66.0537L7.55371 66.0537L7.55371 66.0537L8.05371 66.0537ZM12.4541 88.2539L12.6455 88.7158L13.1075 88.5244L12.916 88.0624L12.4541 88.2539ZM11.5303 88.6367L11.0684 88.8282L11.2599 89.29L11.7217 89.0986L11.5303 88.6367ZM7.05371 66.0537L6.55371 66.0537L6.55371 66.0537L7.05371 66.0537ZM11.5303 43.4697L11.0684 43.2782L11.0684 43.2782L11.5303 43.4697ZM24.334 24.334L24.6875 23.9804L24.334 23.6269L23.9804 23.9804L24.334 24.334ZM66.0537 7.05371L66.0537 6.55371H66.0537V7.05371ZM88.6367 11.5303L89.0986 11.7217L89.29 11.2599L88.8282 11.0684L88.6367 11.5303ZM88.2539 12.4541L88.0624 12.916L88.5244 13.1075L88.7158 12.6455L88.2539 12.4541ZM66.0537 8.05371L66.0537 7.55371H66.0537V8.05371ZM43.8525 12.4541L43.3906 12.6455L43.5821 13.1075L44.0441 12.916L43.8525 12.4541ZM43.4697 11.5303L43.2782 11.0684L42.8165 11.2599L43.0078 11.7217L43.4697 11.5303ZM25.041 107.066L24.6875 107.42C30.0759 112.808 36.511 117.15 43.661 120.115L43.8525 119.653L44.0441 119.191C37.017 116.278 30.6916 112.01 25.3946 106.713L25.041 107.066ZM43.8525 119.653L43.661 120.115C50.5583 122.975 58.1221 124.554 66.0537 124.554V124.054V123.554C58.2558 123.554 50.8221 122.002 44.0441 119.191L43.8525 119.653ZM66.0537 124.054H65.5537V125.054H66.0537H66.5537V124.054H66.0537ZM66.0537 125.054V124.554C58.122 124.554 50.5585 122.975 43.6612 120.115L43.4697 120.577L43.2782 121.039C50.2948 123.949 57.9883 125.554 66.0537 125.554V125.054ZM43.4697 120.577L43.6612 120.115C36.5111 117.15 30.076 112.808 24.6875 107.42L24.334 107.773L23.9804 108.127C29.4603 113.607 36.0051 118.023 43.2782 121.039L43.4697 120.577ZM24.334 107.773L24.6875 108.127L25.3946 107.42L25.041 107.066L24.6875 106.713L23.9804 107.42L24.334 107.773ZM107.773 107.773L107.42 107.42C102.031 112.808 95.5963 117.15 88.4462 120.115L88.6377 120.577L88.8292 121.039C96.1024 118.023 102.647 113.607 108.127 108.127L107.773 107.773ZM88.6377 120.577L89.0996 120.386L88.7168 119.462L88.2549 119.653L87.793 119.845L88.1758 120.769L88.6377 120.577ZM88.2549 119.653L88.4464 120.115C95.5965 117.15 102.032 112.808 107.42 107.42L107.066 107.066L106.713 106.713C101.416 112.01 95.0904 116.278 88.0634 119.191L88.2549 119.653ZM107.066 107.066L106.713 107.42L107.42 108.127L107.773 107.773L108.127 107.42L107.42 106.713L107.066 107.066ZM107.773 24.335L107.42 24.6885C112.808 30.077 117.15 36.5121 120.115 43.6622L120.577 43.4707L121.039 43.2792C118.023 36.006 113.607 29.4612 108.127 23.9814L107.773 24.335ZM120.577 43.4707L120.115 43.6622C122.975 50.5594 124.554 58.1231 124.554 66.0547H125.054H125.554C125.554 57.9894 123.948 50.2957 121.039 43.2792L120.577 43.4707ZM125.054 66.0547L124.554 66.0547C124.554 73.9861 122.975 81.5491 120.115 88.4462L120.577 88.6377L121.039 88.8292C123.948 81.8129 125.554 74.1198 125.554 66.0547L125.054 66.0547ZM120.577 88.6377L120.769 88.1758L119.845 87.793L119.653 88.2549L119.462 88.7168L120.386 89.0996L120.577 88.6377ZM119.653 88.2549L120.115 88.4464C122.975 81.5493 124.554 73.9861 124.554 66.0547L124.054 66.0547L123.554 66.0547C123.554 73.8523 122.002 81.2856 119.191 88.0634L119.653 88.2549ZM124.054 66.0547H124.554C124.554 58.1231 122.975 50.5592 120.115 43.662L119.653 43.8535L119.191 44.045C122.002 50.823 123.554 58.2569 123.554 66.0547H124.054ZM119.653 43.8535L120.115 43.662C117.15 36.5119 112.808 30.0769 107.42 24.6884L107.066 25.042L106.713 25.3955C112.01 30.6926 116.278 37.018 119.191 44.045L119.653 43.8535ZM107.066 25.042L107.42 25.3955L108.127 24.6885L107.773 24.335L107.42 23.9814L106.713 24.6884L107.066 25.042ZM24.6875 24.6875L24.3344 25.0415L24.6889 25.3951L25.042 25.041L25.3951 24.687L25.0406 24.3335L24.6875 24.6875ZM25.042 25.041L24.6884 24.6875C19.3001 30.0758 14.9572 36.5109 11.9922 43.661L12.4541 43.8525L12.916 44.0441C15.8299 37.017 20.0985 30.6916 25.3955 25.3946L25.042 25.041ZM12.4541 43.8525L11.9922 43.661C9.13222 50.5582 7.55377 58.1222 7.55371 66.0537L8.05371 66.0537L8.55371 66.0537C8.55377 58.2559 10.1054 50.822 12.916 44.0441L12.4541 43.8525ZM8.05371 66.0537L7.55371 66.0537C7.55377 73.9851 9.13233 81.5483 11.9922 88.4454L12.4541 88.2539L12.916 88.0624C10.1055 81.2846 8.55377 73.8514 8.55371 66.0537L8.05371 66.0537ZM12.4541 88.2539L12.2627 87.792L11.3389 88.1748L11.5303 88.6367L11.7217 89.0986L12.6455 88.7158L12.4541 88.2539ZM11.5303 88.6367L11.9921 88.4452C9.13229 81.5482 7.55377 73.985 7.55371 66.0537L7.05371 66.0537L6.55371 66.0537C6.55377 74.1188 8.15909 81.8119 11.0684 88.8282L11.5303 88.6367ZM7.05371 66.0537L7.55371 66.0537C7.55377 58.1222 9.13218 50.5584 11.9921 43.6612L11.5303 43.4697L11.0684 43.2782C8.15897 50.2947 6.55377 57.9885 6.55371 66.0537L7.05371 66.0537ZM11.5303 43.4697L11.9921 43.6612C14.957 36.5112 19.2992 30.0759 24.6875 24.6875L24.334 24.334L23.9804 23.9804C18.5007 29.4602 14.0843 36.0052 11.0684 43.2782L11.5303 43.4697ZM24.334 24.334L23.9804 24.6875L24.3339 25.0411L24.6875 24.6875L25.0411 24.3339L24.6875 23.9804L24.334 24.334ZM66.0537 7.05371L66.0537 7.55371C73.9852 7.55377 81.5481 9.13218 88.4452 11.9921L88.6367 11.5303L88.8282 11.0684C81.8118 8.15898 74.1189 6.55377 66.0537 6.55371L66.0537 7.05371ZM88.6367 11.5303L88.1748 11.3389L87.792 12.2627L88.2539 12.4541L88.7158 12.6455L89.0986 11.7217L88.6367 11.5303ZM88.2539 12.4541L88.4454 11.9922C81.5482 9.13222 73.9853 7.55377 66.0537 7.55371L66.0537 8.05371L66.0537 8.55371C73.8515 8.55377 81.2845 10.1054 88.0624 12.916L88.2539 12.4541ZM66.0537 8.05371V7.55371C58.122 7.55371 50.5584 9.13217 43.661 11.9922L43.8525 12.4541L44.0441 12.916C50.8221 10.1054 58.2557 8.55371 66.0537 8.55371V8.05371ZM43.8525 12.4541L44.3145 12.2627L43.9316 11.3389L43.4697 11.5303L43.0078 11.7217L43.3906 12.6455L43.8525 12.4541ZM43.4697 11.5303L43.6612 11.9921C50.5585 9.13212 58.122 7.55371 66.0537 7.55371V7.05371V6.55371C57.9883 6.55371 50.2948 8.15891 43.2782 11.0684L43.4697 11.5303Z" fill="#9DA5B7"/>
<path d="M20.5924 66.049L21.0924 66.0441L21.0875 65.5442L20.5876 65.549L20.5924 66.049ZM24.1203 83.0492L23.6596 83.2436L23.6596 83.2436L24.1203 83.0492ZM33.8804 97.5201L34.2339 97.8736L34.5875 97.5201L34.2339 97.1665L33.8804 97.5201ZM33.1732 98.2272L32.8197 98.5807L33.1732 98.9343L33.5268 98.5807L33.1732 98.2272ZM23.1985 83.438L22.7378 83.6323L22.7378 83.6323L23.1985 83.438ZM19.5911 66.0587L19.5863 65.5587L19.0863 65.5635L19.0912 66.0635L19.5911 66.0587ZM66.0523 112.516L66.0514 113.016L66.5509 113.017L66.5523 112.517L66.0523 112.516ZM48.1848 108.942L47.7228 108.751L47.5317 109.212L47.993 109.404L48.1848 108.942ZM48.5673 108.018L48.7591 107.556L48.2968 107.365L48.1054 107.827L48.5673 108.018ZM66.0551 111.516L66.5551 111.517L66.5565 111.017L66.056 111.016L66.0551 111.516ZM66.062 20.5918L66.0703 21.0918L66.5702 21.0835L66.5619 20.5835L66.062 20.5918ZM48.9181 24.262L48.7216 23.8022L48.7216 23.8022L48.9181 24.262ZM34.2767 34.1912L33.9232 33.8376L33.9232 33.8377L34.2767 34.1912ZM24.3475 48.8326L24.1511 49.2924L24.6108 49.4888L24.8073 49.0291L24.3475 48.8326ZM23.8869 48.6358L24.0834 48.176L24.0831 48.1759L23.8869 48.6358ZM23.427 48.4397L22.9673 48.2432L22.7706 48.7033L23.2309 48.8996L23.427 48.4397ZM33.5696 33.4841L33.2161 33.1305L33.2161 33.1305L33.5696 33.4841ZM48.5245 23.3422L48.328 22.8825L48.328 22.8825L48.5245 23.3422ZM66.0454 19.5919L66.5454 19.5837L66.5371 19.0837L66.0372 19.092L66.0454 19.5919ZM112.516 66.0621L113.016 66.0704L113.024 65.5705L112.524 65.5622L112.516 66.0621ZM108.765 83.583L109.225 83.7795L109.225 83.7795L108.765 83.583ZM98.6234 98.5379L98.977 98.8915L98.977 98.8915L98.6234 98.5379ZM83.6679 108.68L83.2079 108.877L83.4042 109.337L83.8643 109.14L83.6679 108.68ZM83.4717 108.221L83.9317 108.024L83.9315 108.024L83.4717 108.221ZM83.2749 107.76L83.0784 107.3L82.6187 107.497L82.8152 107.956L83.2749 107.76ZM97.9163 97.8308L98.2699 98.1844L98.2699 98.1844L97.9163 97.8308ZM107.846 83.1894L108.305 83.3859L108.305 83.3859L107.846 83.1894ZM111.516 66.0455L111.524 65.5456L111.024 65.5373L111.016 66.0373L111.516 66.0455ZM108.932 48.1628L109.146 48.615L109.598 48.4016L109.385 47.9493L108.932 48.1628ZM108.028 48.5895L107.576 48.803L107.789 49.255L108.241 49.0417L108.028 48.5895ZM83.518 24.0797L83.0658 23.8664L82.8525 24.3185L83.3045 24.5319L83.518 24.0797ZM83.9448 23.1751L84.1582 22.723L83.7059 22.5095L83.4925 22.9618L83.9448 23.1751ZM20.5924 66.049L20.0924 66.0538C20.1491 71.8923 21.3391 77.7416 23.6596 83.2436L24.1203 83.0492L24.581 82.8549C22.3115 77.474 21.1478 71.7534 21.0924 66.0441L20.5924 66.049ZM24.1203 83.0492L23.6596 83.2436C25.8981 88.5508 29.1881 93.5349 33.5268 97.8736L33.8804 97.5201L34.2339 97.1665C29.9878 92.9205 26.7701 88.045 24.581 82.8549L24.1203 83.0492ZM33.8804 97.5201L33.5268 97.1665L32.8197 97.8736L33.1732 98.2272L33.5268 98.5807L34.2339 97.8736L33.8804 97.5201ZM33.1732 98.2272L33.5268 97.8736C29.1881 93.5349 25.8977 88.551 23.6592 83.2437L23.1985 83.438L22.7378 83.6323C25.0257 89.0569 28.3883 94.1494 32.8197 98.5807L33.1732 98.2272ZM23.1985 83.438L23.6592 83.2437C21.3386 77.7418 20.1478 71.8922 20.0911 66.0538L19.5911 66.0587L19.0912 66.0635C19.1491 72.0311 20.3662 78.0095 22.7378 83.6323L23.1985 83.438ZM19.5911 66.0587L19.596 66.5586L20.5972 66.549L20.5924 66.049L20.5876 65.549L19.5863 65.5587L19.5911 66.0587ZM66.0523 112.516L66.0533 112.016C60.0401 112.005 54.0247 110.826 48.3765 108.48L48.1848 108.942L47.993 109.404C53.7639 111.8 59.909 113.004 66.0514 113.016L66.0523 112.516ZM48.1848 108.942L48.6467 109.133L49.0293 108.21L48.5673 108.018L48.1054 107.827L47.7228 108.751L48.1848 108.942ZM48.5673 108.018L48.3756 108.48C54.0241 110.826 60.0407 112.005 66.0542 112.016L66.0551 111.516L66.056 111.016C60.1717 111.005 54.285 109.851 48.7591 107.556L48.5673 108.018ZM66.0551 111.516L65.5551 111.514L65.5523 112.514L66.0523 112.516L66.5523 112.517L66.5551 111.517L66.0551 111.516ZM66.062 20.5918L66.0537 20.0919C60.1749 20.1891 54.2772 21.428 48.7216 23.8022L48.9181 24.262L49.1146 24.7218C54.5507 22.3986 60.3205 21.1868 66.0703 21.0918L66.062 20.5918ZM48.9181 24.262L48.7216 23.8022C43.3626 26.0926 38.3215 29.4394 33.9232 33.8376L34.2767 34.1912L34.6303 34.5448C38.9372 30.2379 43.8713 26.9626 49.1146 24.7218L48.9181 24.262ZM34.2767 34.1912L33.9232 33.8377C29.5249 38.236 26.1781 43.277 23.8878 48.6361L24.3475 48.8326L24.8073 49.0291C27.0482 43.7858 30.3233 38.8517 34.6303 34.5448L34.2767 34.1912ZM24.3475 48.8326L24.544 48.3728L24.0834 48.176L23.8869 48.6358L23.6905 49.0956L24.1511 49.2924L24.3475 48.8326ZM23.8869 48.6358L24.0831 48.1759L23.6232 47.9798L23.427 48.4397L23.2309 48.8996L23.6908 49.0957L23.8869 48.6358ZM23.427 48.4397L23.8868 48.6362C26.1772 43.277 29.5248 38.236 33.9232 33.8377L33.5696 33.4841L33.2161 33.1305C28.7264 37.6202 25.3071 42.7682 22.9673 48.2432L23.427 48.4397ZM33.5696 33.4841L33.9232 33.8377C38.3214 29.4394 43.362 26.0923 48.721 23.802L48.5245 23.3422L48.328 22.8825C42.8532 25.2223 37.7056 28.641 33.2161 33.1305L33.5696 33.4841ZM48.5245 23.3422L48.721 23.802C54.2767 21.4277 60.1747 20.189 66.0537 20.0919L66.0454 19.5919L66.0372 19.092C60.0291 19.1913 54.0032 20.4571 48.328 22.8825L48.5245 23.3422ZM66.0454 19.5919L65.5455 19.6002L65.5621 20.6001L66.062 20.5918L66.5619 20.5835L66.5454 19.5837L66.0454 19.5919ZM112.516 66.0621L112.016 66.0538C111.918 71.9328 110.68 77.8309 108.306 83.3865L108.765 83.583L109.225 83.7795C111.65 78.1044 112.916 72.0784 113.016 66.0704L112.516 66.0621ZM108.765 83.583L108.306 83.3865C106.015 88.7455 102.668 93.7861 98.2699 98.1844L98.6234 98.5379L98.977 98.8915C103.467 94.4019 106.885 89.2544 109.225 83.7795L108.765 83.583ZM98.6234 98.5379L98.2699 98.1844C93.8715 102.583 88.8305 105.93 83.4714 108.221L83.6679 108.68L83.8643 109.14C89.3393 106.8 94.4873 103.381 98.977 98.8915L98.6234 98.5379ZM83.6679 108.68L84.1278 108.484L83.9317 108.024L83.4717 108.221L83.0118 108.417L83.2079 108.877L83.6679 108.68ZM83.4717 108.221L83.9315 108.024L83.7347 107.564L83.2749 107.76L82.8152 107.956L83.012 108.417L83.4717 108.221ZM83.2749 107.76L83.4714 108.22C88.8305 105.929 93.8716 102.583 98.2699 98.1844L97.9163 97.8308L97.5628 97.4773C93.2558 101.784 88.3217 105.059 83.0784 107.3L83.2749 107.76ZM97.9163 97.8308L98.2699 98.1844C102.668 93.7861 106.015 88.745 108.305 83.3859L107.846 83.1894L107.386 82.9929C105.145 88.2362 101.87 93.1703 97.5628 97.4773L97.9163 97.8308ZM107.846 83.1894L108.305 83.3859C110.68 77.8303 111.918 71.9327 112.016 66.0538L111.516 66.0455L111.016 66.0373C110.921 71.787 109.709 77.5568 107.386 82.9929L107.846 83.1894ZM111.516 66.0455L111.507 66.5455L112.507 66.562L112.516 66.0621L112.524 65.5622L111.524 65.5456L111.516 66.0455ZM98.5806 33.5269L98.2271 33.8805C102.61 38.2637 106.036 43.1977 108.48 48.3762L108.932 48.1628L109.385 47.9493C106.891 42.6666 103.399 37.6378 98.9342 33.1734L98.5806 33.5269ZM108.932 48.1628L108.719 47.7106L107.814 48.1373L108.028 48.5895L108.241 49.0417L109.146 48.615L108.932 48.1628ZM108.028 48.5895L108.48 48.3761C106.035 43.1976 102.61 38.2637 98.2271 33.8805L97.8735 34.234L97.52 34.5876C101.822 38.8896 105.18 43.7288 107.576 48.803L108.028 48.5895ZM97.8735 34.234L98.2271 33.8805C93.8439 29.4972 88.9099 26.0723 83.7315 23.6276L83.518 24.0797L83.3045 24.5319C88.3788 26.9274 93.218 30.2856 97.52 34.5876L97.8735 34.234ZM83.518 24.0797L83.9702 24.293L84.397 23.3884L83.9448 23.1751L83.4925 22.9618L83.0658 23.8664L83.518 24.0797ZM83.9448 23.1751L83.7313 23.6273C88.9098 26.072 93.8438 29.4972 98.2271 33.8805L98.5806 33.5269L98.9342 33.1734C94.4697 28.7089 89.441 25.2169 84.1582 22.723L83.9448 23.1751Z" fill="#C5CAD4"/>
</svg>
