<svg width="56" height="56" viewBox="0 0 56 56" fill="none" xmlns="http://www.w3.org/2000/svg">
<path fill-rule="evenodd" clip-rule="evenodd" d="M6.97321 30.8852H1.96429C0.883929 30.8852 0 30 0 28.918V7.96721C0 6.88525 0.883929 6 1.96429 6H25.8304C26.125 6 26.4196 6.09836 26.6161 6.19672L32.8036 9.04918C33.4911 9.34426 33.9821 10.0328 33.9821 10.8197V25.4754C33.9821 26.1639 33.6875 26.7541 33.0982 27.1475L26.9107 31.377C26.6161 31.5738 26.2232 31.6721 25.8304 31.6721H20.5268L17.5804 43.082L18.8571 46.623C19.3482 47.9016 18.3661 49.2787 16.9911 49.2787H4.91071C3.63393 49.2787 2.65179 48.0984 3.04464 46.8197L6.97321 30.8852ZM25.3384 9.93359L30.0527 12.0975H29.9545V24.5893L25.142 27.8352H18.9545C18.0706 27.8352 17.2849 28.4254 17.0884 29.3106L13.6509 42.7861C13.5527 43.1795 13.6509 43.5729 13.7492 43.9664L14.2402 45.3434H7.36523L11.392 29.409C11.7849 28.1303 10.8027 26.95 9.52595 26.95H3.92773V9.93359H25.3384ZM53.0363 17.3114H48.1256C48.0273 15.4426 47.4381 13.5737 46.4559 11.9016C46.1613 11.3114 45.4738 10.918 44.7863 10.918H38.3041C37.2238 10.918 36.3398 11.8032 36.3398 12.8852V24.6885C36.3398 25.7704 37.2238 26.6557 38.3041 26.6557H44.6881C45.4738 26.6557 46.1613 26.1639 46.4559 25.4753C47.0452 23.9999 47.5363 22.6229 47.8309 21.2458H53.0363C54.1166 21.2458 55.0006 20.3606 55.0006 19.2786C55.0006 18.1967 54.1166 17.3114 53.0363 17.3114ZM43.214 22.7204H40.2676V14.8516H43.5086C43.9997 15.9335 44.1961 16.9171 44.1961 18.0975C44.1961 19.4745 43.8033 20.9499 43.214 22.7204Z" fill="#A38A77"/>
</svg>
