<svg width="56" height="56" viewBox="0 0 56 56" fill="none" xmlns="http://www.w3.org/2000/svg">
<path d="M13.001 23.6523C19.0516 23.6523 24.0027 28.568 24.0029 34.5762C24.0029 40.5845 19.0517 45.501 13.001 45.501C6.95042 45.5008 2.00003 40.5849 2 34.5801C2 28.5719 6.9504 23.6555 13.001 23.6553V23.6523ZM13.001 26.3828C10.8099 26.3737 8.70558 27.234 7.15625 28.7725C5.60697 30.311 4.74081 32.4005 4.75 34.5762C4.74084 36.7519 5.60693 38.8414 7.15625 40.3799C8.70558 41.9184 10.8099 42.7786 13.001 42.7695C15.1921 42.7787 17.2963 41.9183 18.8457 40.3799C20.395 38.8414 21.2611 36.7519 21.252 34.5762C21.2611 32.4004 20.3951 30.311 18.8457 28.7725C17.2963 27.234 15.1921 26.3737 13.001 26.3828Z" fill="#A38A77"/>
<path d="M46.0027 34.5756C46.0027 28.5673 41.0521 23.6514 35.0013 23.6514H34.2656L40.1342 17.8274C41.6886 16.2867 43.8032 15.4337 45.9993 15.4616C48.1904 15.4525 50.2944 16.3128 51.8438 17.8513C53.3931 19.3898 54.2595 21.479 54.2503 23.6548C54.2503 25.8396 53.3324 28.0245 51.8678 29.4788L45.9993 35.3028H46.0027V34.5756Z" fill="#A38A77"/>
<path d="M23.999 10C27.117 10.0001 29.4989 12.3658 29.499 15.4619C29.499 18.5548 27.1171 20.9237 23.999 20.9238C20.8843 20.9238 18.498 18.5548 18.498 15.4619C18.4982 12.3657 20.8843 10 23.999 10ZM23.998 12.7305C22.5336 12.7307 21.248 14.0043 21.248 15.4619C21.2845 16.9548 22.4946 18.1562 23.998 18.1924C25.5016 18.1564 26.7126 16.9549 26.749 15.4619C26.749 14.0042 25.466 12.7305 23.998 12.7305Z" fill="#A38A77"/>
<path d="M34.999 29C38.117 29.0001 40.4989 31.3658 40.499 34.4619C40.499 37.5548 38.1171 39.9237 34.999 39.9238C31.8843 39.9238 29.498 37.5548 29.498 34.4619C29.4982 31.3657 31.8843 29 34.999 29Z" fill="#A38A77"/>
<path d="M12.999 29.1133C16.117 29.1134 18.4989 31.4825 18.499 34.5752C18.499 37.6714 16.1171 40.037 12.999 40.0371C9.88435 40.0371 7.49819 37.6719 7.49805 34.5791C7.49805 31.4828 9.88426 29.1162 12.999 29.1162V29.1133ZM12.998 31.8438C11.5336 31.8439 10.248 33.1176 10.248 34.5752C10.2845 36.0681 11.4946 37.2695 12.998 37.3057C14.5016 37.2697 15.7126 36.0682 15.749 34.5752C15.749 33.1175 14.466 31.8438 12.998 31.8438Z" fill="#A38A77"/>
</svg>
