<svg width="21" height="16" viewBox="0 0 21 16" fill="none" xmlns="http://www.w3.org/2000/svg">
<path d="M20.3304 7.27339C20.5907 7.5337 20.6624 7.91069 20.5479 8.23669C20.5039 8.36395 20.4324 8.48343 20.3311 8.58472L13.7627 15.1531C13.4009 15.5149 12.8092 15.5099 12.4473 15.1482C12.0854 14.7863 12.0798 14.194 12.4417 13.8321L18.3527 7.92111L12.3996 1.96802C12.0379 1.6062 12.0387 1.01861 12.4003 0.656698C12.7622 0.294807 13.3504 0.293477 13.7123 0.655317L20.3304 7.27339Z" fill="white"/>
<path fill-rule="evenodd" clip-rule="evenodd" d="M0.000244141 7.90317C0.000244141 7.39135 0.415161 6.97461 0.926987 6.97461H17.7622C18.274 6.97461 18.6889 7.39135 18.6889 7.90317C18.6889 8.415 18.274 8.83174 17.7622 8.83174H0.926985C0.415159 8.83174 0.000244141 8.415 0.000244141 7.90317Z" fill="white"/>
</svg>
