<svg width="32" height="32" viewBox="0 0 32 32" fill="none" xmlns="http://www.w3.org/2000/svg">
<path d="M19.2928 12.5384C19.5069 12.5384 19.718 12.5541 19.9272 12.5768C19.3574 9.95123 16.5202 8 13.2819 8C9.66131 8 6.69531 10.4422 6.69531 13.5431C6.69531 15.3327 7.68229 16.8026 9.33098 17.9426L8.67231 19.9037L10.9746 18.7609C11.799 18.922 12.4596 19.0882 13.2819 19.0882C13.4885 19.0882 13.6931 19.0781 13.8967 19.0619C13.7678 18.6265 13.6931 18.1699 13.6931 17.6966C13.6931 14.8493 16.1641 12.5384 19.2928 12.5384ZM15.7519 10.771C16.2479 10.771 16.5762 11.0943 16.5762 11.5848C16.5762 12.0732 16.2479 12.4005 15.7519 12.4005C15.2579 12.4005 14.7629 12.0732 14.7629 11.5848C14.7629 11.0943 15.2579 10.771 15.7519 10.771ZM11.1423 12.4005C10.6483 12.4005 10.1502 12.0732 10.1502 11.5848C10.1502 11.0943 10.6483 10.771 11.1423 10.771C11.6358 10.771 11.9646 11.0943 11.9646 11.5848C11.9646 12.0732 11.6358 12.4005 11.1423 12.4005ZM25.3046 17.6183C25.3046 15.0124 22.6694 12.8885 19.71 12.8885C16.5762 12.8885 14.1083 15.0124 14.1083 17.6183C14.1083 20.228 16.5762 22.3474 19.71 22.3474C20.3656 22.3474 21.0273 22.1847 21.6859 22.0211L23.4928 23L22.9972 21.3715C24.3196 20.3896 25.3046 19.0882 25.3046 17.6183ZM17.8936 16.8026C17.5658 16.8026 17.2349 16.4798 17.2349 16.1505C17.2349 15.8257 17.5658 15.4989 17.8936 15.4989C18.3916 15.4989 18.7179 15.8257 18.7179 16.1505C18.7179 16.4798 18.3916 16.8026 17.8936 16.8026ZM21.5162 16.8026C21.191 16.8026 20.8621 16.4798 20.8621 16.1505C20.8621 15.8257 21.191 15.4989 21.5162 15.4989C22.0102 15.4989 22.3406 15.8257 22.3406 16.1505C22.3406 16.4798 22.0102 16.8026 21.5162 16.8026Z" fill="#031524"/>
</svg>
