<svg width="32" height="32" viewBox="0 0 32 32" fill="none" xmlns="http://www.w3.org/2000/svg">
<path d="M19.1317 8.16036C18.5781 8.15873 18.0296 8.26655 17.5177 8.4776C17.0058 8.68865 16.5407 8.99878 16.1491 9.39016C15.7575 9.78155 15.4471 10.2465 15.2358 10.7582C15.0244 11.2699 14.9163 11.8184 14.9176 12.3721V18.7548C14.9176 19.9241 13.9576 20.8841 12.7896 20.8841C11.6203 20.8841 10.6197 19.9241 10.6197 18.713C10.6197 17.5031 11.5797 16.5862 12.749 16.5862C12.8863 16.5874 13.0225 16.5611 13.1495 16.5091C13.2766 16.457 13.392 16.3802 13.4891 16.283C13.5861 16.1858 13.6629 16.0703 13.7148 15.9432C13.7667 15.816 13.7927 15.6798 13.7914 15.5425C13.7926 15.4052 13.7664 15.269 13.7143 15.1419C13.6622 15.0149 13.5854 14.8994 13.4882 14.8024C13.3911 14.7053 13.2755 14.6286 13.1484 14.5767C13.0213 14.5248 12.8851 14.4987 12.7477 14.5001C11.6861 14.5369 10.678 14.9752 9.92703 15.7266C9.17611 16.478 8.73835 17.4864 8.70219 18.5481C8.61604 20.8841 10.4117 22.8434 12.7477 22.9296C13.3017 22.9312 13.8505 22.8233 14.3626 22.612C14.8747 22.4007 15.34 22.0903 15.7316 21.6985C16.1233 21.3067 16.4336 20.8414 16.6448 20.3292C16.8559 19.817 16.9637 19.2682 16.9619 18.7142V12.3327C16.9619 11.1634 17.9219 10.2047 19.0899 10.2047C20.2579 10.2047 21.2167 11.1647 21.2167 12.3327C21.2167 13.5019 20.2567 14.4607 19.1317 14.4607H19.0899C18.9526 14.4594 18.8164 14.4854 18.6892 14.5373C18.5621 14.5892 18.4466 14.6659 18.3494 14.763C18.2522 14.86 18.1754 14.9755 18.1233 15.1026C18.0713 15.2296 18.045 15.3658 18.0462 15.5031C18.0449 15.6406 18.071 15.7769 18.123 15.9041C18.1749 16.0313 18.2518 16.1469 18.349 16.2441C18.4461 16.3412 18.5617 16.4181 18.6889 16.4701C18.8162 16.522 18.9525 16.5481 19.0899 16.5468C19.6436 16.5483 20.1922 16.4403 20.7041 16.229C21.216 16.0177 21.6811 15.7073 22.0726 15.3157C22.4641 14.9241 22.7743 14.4589 22.9855 13.947C23.1966 13.4351 23.3044 12.8864 23.3028 12.3327C23.3082 11.7832 23.204 11.2383 22.9963 10.7296C22.7885 10.2209 22.4814 9.75882 22.0929 9.3703C21.7043 8.98178 21.2422 8.67466 20.7336 8.4669C20.2249 8.25914 19.6799 8.15493 19.1305 8.16036H19.1317Z" fill="#17233B"/>
</svg>
