<svg width="28" height="28" viewBox="0 0 28 28" fill="none" xmlns="http://www.w3.org/2000/svg">
<g clip-path="url(#clip0_1368_8705)">
<path d="M23.7154 23.714C23.6297 23.714 23.5297 23.6854 23.444 23.6426L21.944 22.8569C20.8725 23.414 19.6725 23.714 18.4297 23.714C14.5725 23.714 11.4297 20.8997 11.4297 17.4283C11.4297 13.9569 14.5725 11.1426 18.4297 11.1426C22.2868 11.1426 25.4297 13.9569 25.4297 17.4283C25.4297 18.814 24.9154 20.1711 23.9725 21.2711L24.2725 23.0569C24.3154 23.2711 24.2154 23.4854 24.044 23.614C23.944 23.6711 23.8297 23.714 23.7154 23.714ZM18.4297 12.2854C15.2011 12.2854 12.5725 14.5854 12.5725 17.4283C12.5725 20.2711 15.2011 22.5711 18.4297 22.5711C19.5868 22.5711 20.7011 22.2711 21.6583 21.714C21.8297 21.614 22.044 21.614 22.2154 21.6997L22.9583 22.0854L22.8011 21.1711C22.7725 20.9997 22.8297 20.814 22.944 20.6854C23.8011 19.7711 24.2868 18.5997 24.2868 17.414C24.2868 14.5854 21.6583 12.2854 18.4297 12.2854Z" fill="white"/>
<path d="M15 15.8436C15 15.9562 15.0221 16.0677 15.0652 16.1717C15.1083 16.2757 15.1714 16.3702 15.251 16.4498C15.3306 16.5294 15.4251 16.5926 15.5291 16.6357C15.6331 16.6787 15.7446 16.7009 15.8571 16.7009C15.9697 16.7009 16.0812 16.6787 16.1852 16.6357C16.2892 16.5926 16.3837 16.5294 16.4633 16.4498C16.5429 16.3702 16.606 16.2757 16.6491 16.1717C16.6922 16.0677 16.7143 15.9562 16.7143 15.8436C16.7143 15.731 16.6922 15.6196 16.6491 15.5156C16.606 15.4116 16.5429 15.317 16.4633 15.2374C16.3837 15.1578 16.2892 15.0947 16.1852 15.0516C16.0812 15.0085 15.9697 14.9863 15.8571 14.9863C15.7446 14.9863 15.6331 15.0085 15.5291 15.0516C15.4251 15.0947 15.3306 15.1578 15.251 15.2374C15.1714 15.317 15.1083 15.4116 15.0652 15.5156C15.0221 15.6196 15 15.731 15 15.8436Z" fill="white"/>
<path d="M20.1426 15.8415C20.1426 16.0688 20.2329 16.2869 20.3936 16.4476C20.5544 16.6084 20.7724 16.6987 20.9997 16.6987C21.227 16.6987 21.4451 16.6084 21.6058 16.4476C21.7666 16.2869 21.8569 16.0688 21.8569 15.8415C21.8569 15.6142 21.7666 15.3962 21.6058 15.2354C21.4451 15.0747 21.227 14.9844 20.9997 14.9844C20.7724 14.9844 20.5544 15.0747 20.3936 15.2354C20.2329 15.3962 20.1426 15.6142 20.1426 15.8415Z" fill="white"/>
<path d="M7 9.41429C6.99998 9.54563 7.02583 9.67568 7.07607 9.79702C7.12632 9.91837 7.19997 10.0286 7.29283 10.1215C7.3857 10.2144 7.49594 10.2881 7.61728 10.3383C7.73861 10.3886 7.86866 10.4145 8 10.4145C8.13134 10.4145 8.26139 10.3886 8.38272 10.3383C8.50406 10.2881 8.6143 10.2144 8.70717 10.1215C8.80003 10.0286 8.87368 9.91837 8.92393 9.79702C8.97417 9.67568 9.00002 9.54563 9 9.41429C9.00002 9.28295 8.97417 9.1529 8.92393 9.03156C8.87368 8.91021 8.80003 8.79995 8.70717 8.70708C8.6143 8.6142 8.50406 8.54053 8.38272 8.49026C8.26139 8.44 8.13134 8.41412 8 8.41412C7.86866 8.41412 7.73861 8.44 7.61728 8.49026C7.49594 8.54053 7.3857 8.6142 7.29283 8.70708C7.19997 8.79995 7.12632 8.91021 7.07607 9.03156C7.02583 9.1529 6.99998 9.28295 7 9.41429Z" fill="white"/>
<path d="M13 9.41428C13 9.5456 13.0259 9.67563 13.0761 9.79696C13.1264 9.91829 13.2 10.0285 13.2929 10.1214C13.3858 10.2142 13.496 10.2879 13.6173 10.3382C13.7386 10.3884 13.8687 10.4143 14 10.4143C14.1313 10.4143 14.2614 10.3884 14.3827 10.3382C14.504 10.2879 14.6142 10.2142 14.7071 10.1214C14.8 10.0285 14.8736 9.91829 14.9239 9.79696C14.9741 9.67563 15 9.5456 15 9.41428C15 9.28295 14.9741 9.15292 14.9239 9.03159C14.8736 8.91027 14.8 8.80003 14.7071 8.70717C14.6142 8.61431 14.504 8.54065 14.3827 8.4904C14.2614 8.44014 14.1313 8.41428 14 8.41428C13.8687 8.41428 13.7386 8.44014 13.6173 8.4904C13.496 8.54065 13.3858 8.61431 13.2929 8.70717C13.2 8.80003 13.1264 8.91027 13.0761 9.03159C13.0259 9.15292 13 9.28295 13 9.41428Z" fill="white"/>
<path d="M4.54174 19.3994C4.42746 19.3994 4.29888 19.3566 4.19888 19.2852C4.02746 19.1566 3.94174 18.9423 3.97031 18.728L4.35603 16.4994C3.19888 15.1709 2.57031 13.528 2.57031 11.8423C2.57031 7.67087 6.35603 4.28516 10.9989 4.28516C13.2132 4.28516 15.2989 5.0423 16.8846 6.4423C18.4846 7.8423 19.3846 9.71373 19.4275 11.728C19.4275 11.8852 19.3703 12.0423 19.256 12.1566C19.1417 12.2709 18.9846 12.328 18.8275 12.3137C18.6846 12.2994 18.556 12.2994 18.4417 12.2994C15.2132 12.2994 12.5846 14.5994 12.5846 17.4423C12.5846 17.828 12.6417 18.228 12.7417 18.6137C12.7846 18.7709 12.756 18.9423 12.6703 19.0852C12.5846 19.228 12.4275 19.3137 12.2703 19.328C11.856 19.3852 11.4417 19.4137 11.0275 19.4137C9.49888 19.4137 8.02746 19.0423 6.72746 18.3566L4.84174 19.3566C4.72746 19.3709 4.62746 19.3994 4.54174 19.3994ZM6.69888 17.1137C6.79888 17.1137 6.89888 17.1423 6.9846 17.1852C8.31317 17.9566 9.8846 18.328 11.4846 18.228C11.4417 17.9566 11.4275 17.6852 11.4275 17.4137C11.4275 13.9994 14.4703 11.2137 18.2417 11.128C17.8417 7.92801 14.7275 5.41373 10.9989 5.41373C6.9846 5.41373 3.71317 8.28516 3.71317 11.828C3.71317 13.3137 4.31317 14.7709 5.3846 15.9137C5.51317 16.0423 5.55603 16.228 5.52746 16.3994L5.29888 17.7709L6.44174 17.1709C6.52746 17.1423 6.61317 17.1137 6.69888 17.1137Z" fill="white"/>
</g>
<defs>
<clipPath id="clip0_1368_8705">
<rect width="28" height="28" fill="white"/>
</clipPath>
</defs>
</svg>
