<svg width="312" height="95" viewBox="0 0 312 95" fill="none" xmlns="http://www.w3.org/2000/svg">
<path d="M68.248 49.5751C68.4215 49.5766 68.5981 49.5956 68.7686 49.6268C68.8244 49.6373 68.8895 49.706 68.9121 49.7626C68.9497 49.8578 68.9726 49.9637 68.9756 50.0663C68.9831 50.3789 68.9814 50.6931 68.9814 51.0057C68.9814 57.4888 68.9809 63.9719 68.9824 70.455C68.9824 71.5717 69.052 72.6828 69.2949 73.7772C70.1385 77.5682 72.2684 80.4236 75.6924 82.328C76.9917 83.0516 78.3904 83.5274 79.8467 83.8475C81.8989 84.2987 83.9785 84.3785 86.0625 84.2177C87.8643 84.0777 89.6223 83.704 91.2988 83.0087C94.2762 81.7743 96.5597 79.791 98.0205 76.9276C98.9395 75.126 99.4148 73.2078 99.4238 71.1903C99.4389 67.9488 99.4282 64.7072 99.4297 61.4657C99.4297 57.8415 99.4286 54.2173 99.4316 50.5917C99.4316 50.3147 99.4542 50.0376 99.4844 49.7606C99.489 49.7086 99.5683 49.6317 99.624 49.621C99.7961 49.5912 99.9734 49.5766 100.148 49.5751C101.137 49.5706 102.127 49.5731 103.115 49.5731C104.951 49.5731 106.788 49.5721 108.624 49.5751C108.87 49.5751 109.119 49.5819 109.362 49.6132C109.46 49.6251 109.557 49.707 109.563 49.8231C109.58 50.1358 109.597 50.4489 109.597 50.7616C109.598 54.0373 109.598 57.3135 109.598 60.5907C109.598 64.1806 109.617 67.7709 109.59 71.3593C109.567 74.5336 108.923 77.5888 107.6 80.4862C105.386 85.3417 101.819 88.9333 97.0488 91.3798C94.5543 92.6588 91.9055 93.4739 89.1318 93.9296C86.9603 94.2869 84.7781 94.4002 82.5869 94.2841C78.0372 94.0413 73.7453 92.8932 69.8369 90.5272C65.3822 87.8321 62.1721 84.0959 60.3145 79.2626C59.4966 77.1318 59.0045 74.9265 58.9004 72.6454C58.8596 71.7401 58.8282 70.8344 58.8252 69.9276C58.8161 67.1747 58.8223 64.4218 58.8223 61.6688C58.8223 58.0446 58.8212 54.4181 58.8242 50.7938C58.8242 50.4813 58.8403 50.1688 58.8584 49.8563C58.8644 49.7193 58.9989 49.5952 59.1377 49.5907C59.3836 49.5818 59.631 49.5731 59.877 49.5731C61.0781 49.5716 62.2794 49.5731 63.4805 49.5731C65.0695 49.5731 66.659 49.5721 68.248 49.5751ZM260.444 49.5721C263.025 49.5677 265.604 49.5707 268.183 49.5721C268.465 49.5721 268.748 49.5736 269.03 49.5751C269.213 49.5766 269.377 49.6321 269.512 49.7587C269.717 49.9493 269.924 50.1393 270.128 50.3329C279.588 59.2863 289.048 68.2418 298.509 77.1952C299.503 78.1347 300.512 79.0639 301.514 79.996C301.586 80.0624 301.75 80.01 301.764 79.9208C301.78 79.8182 301.81 79.7167 301.812 79.6141C301.819 79.3002 301.816 78.9877 301.816 78.6737V51.0585C301.816 50.7458 301.816 50.4312 301.819 50.1171C301.824 49.5871 301.975 49.5751 302.384 49.5751C304.751 49.5691 307.118 49.5707 309.485 49.5721C310.157 49.5721 310.829 49.5711 311.5 49.577C311.604 49.5785 311.713 49.5935 311.81 49.6307C311.867 49.6517 311.921 49.7216 311.942 49.7811C311.975 49.8778 311.992 49.9852 311.995 50.0878C312.003 50.3661 312.001 50.6449 312.001 50.9247V92.9725C312.001 93.3208 311.988 93.6691 311.976 94.0175C311.971 94.1544 311.839 94.2825 311.705 94.2899C311.53 94.3003 311.354 94.3094 311.178 94.3094C308.28 94.3109 305.383 94.3109 302.485 94.3094C302.345 94.3094 302.203 94.3061 302.062 94.3016C301.918 94.2987 301.784 94.2608 301.676 94.161C301.522 94.0181 301.365 93.8757 301.213 93.7313C296.032 88.837 290.851 83.9416 285.671 79.0458C280.516 74.1753 275.361 69.3035 270.206 64.4344C270.028 64.2662 269.844 64.102 269.65 63.9501C269.61 63.9176 269.511 63.9157 269.461 63.9423C269.408 63.9691 269.352 64.0458 269.351 64.1024C269.332 64.4507 269.325 64.7991 269.325 65.1473C269.324 74.4208 269.324 83.6957 269.322 92.9706C269.322 93.3175 269.311 93.6662 269.299 94.0145C269.294 94.1543 269.17 94.2822 269.037 94.2899C268.897 94.2988 268.755 94.3094 268.614 94.3094C265.681 94.3094 262.748 94.31 259.814 94.3085C259.676 94.3084 259.536 94.2867 259.396 94.2733C259.27 94.2599 259.203 94.1594 259.19 94.0673C259.16 93.826 259.153 93.5795 259.153 93.3368C259.15 91.4891 259.152 89.6415 259.152 87.7938V71.8944C259.152 64.8856 259.15 57.8778 259.153 50.869C259.153 49.4144 259.02 49.5751 260.444 49.5721ZM0.46582 49.5897C0.818941 49.5823 1.17129 49.5702 1.52441 49.5702C12.3322 49.5687 23.1385 49.5692 33.9463 49.5692C34.8638 49.5692 35.7783 49.5993 36.6943 49.702C39.714 50.043 42.4397 51.1115 44.8467 52.9296C48.1832 55.449 50.2773 58.7658 51.0273 62.8427C52.3536 70.0463 48.6956 77.0554 42.0332 80.2596C41.7165 80.4114 41.3964 80.5566 41.0781 80.7069C40.9892 80.7486 40.9607 80.8828 41.0254 80.9677C41.1733 81.1612 41.3202 81.3577 41.4756 81.5468C44.6612 85.4137 47.848 89.2784 51.0352 93.1454C51.2568 93.4147 51.4754 93.6885 51.6865 93.9667C51.7212 94.0128 51.7296 94.103 51.71 94.1581C51.6917 94.2101 51.6235 94.2752 51.5723 94.2811C51.3625 94.3005 51.1497 94.3065 50.9385 94.3065C47.2654 94.308 43.592 94.3085 39.9189 94.3085C39.7425 94.3085 39.5661 94.3007 39.3896 94.3007C39.1981 94.3021 39.0561 94.2129 38.9385 94.0731C38.8268 93.9391 38.7137 93.8028 38.6035 93.6688C35.5749 89.9895 32.5472 86.312 29.5186 82.6327C29.3858 82.4704 29.249 82.3106 29.1162 82.1483C28.9985 82.0069 28.8502 81.9243 28.6631 81.9198C28.4157 81.9153 28.1683 81.91 27.9209 81.91C22.4822 81.9085 17.0432 81.9085 11.6045 81.91C11.3571 81.91 11.1107 81.9153 10.8633 81.9227C10.6584 81.9303 10.5126 82.0535 10.502 82.2245C10.4914 82.3629 10.4854 82.503 10.4824 82.6415C10.4764 83.1299 10.4683 83.6184 10.4668 84.1053V93.3583C10.466 93.5153 10.4636 93.6725 10.4561 93.829C10.4454 94.0848 10.3867 94.2703 10.001 94.2675C9.7882 94.266 9.5765 94.2704 9.36523 94.2704C6.64601 94.2704 3.92528 94.2719 1.20605 94.2704C0.960094 94.2704 0.712313 94.2573 0.464844 94.2499C0.310919 94.2692 0.155434 94.2872 0 94.3065V49.535C0.15526 49.5529 0.31056 49.5719 0.46582 49.5897ZM128.372 49.5682C128.637 49.5653 128.853 49.653 129.037 49.8329C129.162 49.9565 129.29 50.0775 129.418 50.1981C135.333 55.7982 141.247 61.3984 147.164 66.9969C151.551 71.1483 155.94 75.2968 160.328 79.4452C160.532 79.6372 160.743 79.8233 160.96 79.9989C160.998 80.0287 161.09 80.0021 161.152 79.9872C161.175 79.9808 161.195 79.9338 161.199 79.9042C161.219 79.8014 161.241 79.6983 161.242 79.5956C161.248 79.2829 161.247 78.9683 161.247 78.6542C161.247 69.4151 161.248 60.176 161.249 50.9354C161.249 50.587 161.258 50.2384 161.271 49.8915C161.279 49.7098 161.422 49.5849 161.62 49.579C161.797 49.573 161.973 49.5702 162.149 49.5702C164.94 49.5702 167.732 49.5682 170.523 49.5712C170.735 49.5712 170.946 49.5891 171.155 49.5995C171.282 49.6054 171.341 49.704 171.379 49.7948C171.418 49.8886 171.424 49.9987 171.426 50.1014C171.433 50.4156 171.432 50.7297 171.432 51.0438V92.8837C171.43 93.2663 171.417 93.6494 171.403 94.0321C171.4 94.1525 171.248 94.2877 171.121 94.2938C170.945 94.3013 170.767 94.3075 170.591 94.3075C167.73 94.309 164.867 94.3085 162.005 94.3085C161.828 94.3085 161.651 94.3041 161.475 94.2997C161.33 94.2966 161.2 94.247 161.093 94.1473C160.939 94.0046 160.784 93.8618 160.632 93.7177C155.426 88.7995 150.219 83.8795 145.013 78.9598C139.883 74.1131 134.755 69.2645 129.62 64.4237C129.409 64.2242 129.259 63.8956 128.876 63.9462C128.653 64.1844 128.76 64.4795 128.76 64.743C128.752 74.158 128.753 83.5718 128.752 92.9852C128.752 93.3335 128.739 93.6823 128.726 94.0292C128.721 94.16 128.586 94.2849 128.45 94.2909C128.238 94.2998 128.027 94.3075 127.815 94.3075C125.058 94.309 122.302 94.3085 119.547 94.3085C119.334 94.3085 119.123 94.3037 118.912 94.2948C118.731 94.2874 118.603 94.1477 118.597 93.9452C118.588 93.6668 118.583 93.3882 118.583 93.1083V51.0604C118.583 50.7463 118.58 50.4321 118.586 50.118C118.595 49.6609 118.68 49.5727 119.15 49.5712C121.589 49.5682 124.026 49.5702 126.465 49.5702C127.1 49.5702 127.737 49.5757 128.372 49.5682ZM239.126 49.8798C239.268 49.981 239.399 50.099 239.527 50.2196C242.505 52.9981 245.481 55.7766 248.455 58.5565C248.635 58.7248 248.813 58.8934 248.975 59.078C249.039 59.151 249.082 59.2611 249.091 59.3593C249.11 59.5661 249.107 59.7759 249.107 59.9843V93.3417C249.107 93.5157 249.107 93.6901 249.103 93.8641C249.092 94.193 248.992 94.2878 248.654 94.2997C248.583 94.3027 248.512 94.3046 248.441 94.3046H239.541C239.401 94.3031 239.253 94.3125 239.12 94.2753C239.036 94.2514 238.947 94.1647 238.904 94.0829C238.861 93.995 238.859 93.88 238.856 93.7772C238.85 93.4632 238.852 93.1493 238.852 92.8368V72.0272C238.852 65.0215 238.852 58.0154 238.854 51.0096C238.854 50.663 238.876 50.3163 238.891 49.9696C238.892 49.9398 238.915 49.8891 238.937 49.8846C238.998 49.8728 239.084 49.8504 239.126 49.8798ZM214.269 49.5643C215.651 49.5643 217.02 49.6653 218.375 49.9423C224.422 51.1797 229.314 55.6934 230.897 61.5839C231.243 62.8717 231.448 64.1836 231.446 65.5087C231.442 70.245 229.734 74.2846 226.221 77.538C223.784 79.7937 220.875 81.1478 217.589 81.6884C216.579 81.8536 215.555 81.9145 214.526 81.913C207.039 81.904 199.549 81.9091 192.062 81.9091C191.743 81.9091 191.424 81.907 191.107 81.9159C191.003 81.9174 190.893 81.9353 190.798 81.9725C190.741 81.9951 190.669 82.067 190.664 82.1219C190.64 82.3973 190.626 82.6757 190.626 82.954C190.624 86.2655 190.625 89.5771 190.625 92.8885C190.625 93.2012 190.626 93.5158 190.618 93.83C190.611 94.1438 190.491 94.2551 190.167 94.2655C190.096 94.2685 190.026 94.2684 189.955 94.2684C187.023 94.2699 184.091 94.2699 181.16 94.2684C181.018 94.2684 180.878 94.2544 180.737 94.244C180.614 94.2335 180.488 94.0958 180.478 93.9589C180.47 93.8564 180.46 93.7523 180.46 93.6483C180.457 93.3685 180.457 93.0897 180.457 92.8114V71.8964C180.457 64.8551 180.456 57.8136 180.458 50.7723C180.458 49.4726 180.338 49.5672 181.629 49.5673C192.509 49.5673 203.39 49.5703 214.269 49.5643ZM191.242 59.3163C191.137 59.3178 191.031 59.3279 190.926 59.3368C190.786 59.3488 190.653 59.4715 190.646 59.5995C190.636 59.8093 190.627 60.0181 190.627 60.2264C190.625 63.8862 190.627 67.5461 190.625 71.2059C190.625 72.0904 190.599 72.1651 191.275 72.1698H203.267C206.94 72.1698 210.613 72.1693 214.287 72.1678C214.675 72.1678 215.065 72.1697 215.451 72.1444C215.732 72.1265 216.014 72.0863 216.287 72.0223C219.78 71.2063 221.737 67.69 221.184 64.7284C220.824 62.799 219.833 61.31 218.183 60.2469C217.279 59.6648 216.277 59.3425 215.189 59.3202C214.836 59.3128 214.483 59.3143 214.13 59.3143H191.983C191.736 59.3143 191.488 59.3133 191.242 59.3163ZM10.8516 59.3231C10.6118 59.3291 10.4873 59.4691 10.4766 59.7294C10.4705 59.9036 10.4697 60.0786 10.4697 60.2528C10.4697 63.9126 10.4682 67.5725 10.4697 71.2323C10.4697 71.4422 10.4787 71.6508 10.4893 71.8593C10.4953 71.9992 10.6203 72.1379 10.75 72.1425C11.0669 72.1559 11.3843 72.1673 11.7012 72.1688H34.166C34.5191 72.1688 34.874 72.1676 35.2256 72.1512C35.473 72.1393 35.722 72.1203 35.9619 72.0682C39.0193 71.4086 40.9287 68.8453 41.1113 66.1561C41.235 64.3264 40.6325 62.7155 39.3877 61.3651C38.1669 60.0414 36.6412 59.3194 34.8018 59.3134H11.8047C11.488 59.3134 11.1698 59.3142 10.8516 59.3231Z" fill="#17233B"/>
<path fill-rule="evenodd" clip-rule="evenodd" d="M249.091 37.3992C249.091 39.594 249.091 41.7888 249.093 43.9822C249.093 44.07 249.06 44.1191 248.969 44.1221C248.937 44.1236 248.903 44.1221 248.871 44.1132C248.839 44.1028 248.805 44.0879 248.779 44.0655C248.697 43.9985 248.621 43.9285 248.544 43.8556C246.633 42.0479 244.723 40.2388 242.812 38.4296C240.902 36.622 238.993 34.8128 237.081 33.0052C235.475 31.4864 233.868 29.9706 232.261 28.4533C230.553 26.8392 228.846 25.2236 227.137 23.6095C225.506 22.0684 223.875 20.5272 222.242 18.9846C220.611 17.4435 218.973 15.9068 217.348 14.3583C216.548 13.5974 216.634 13.7835 216.633 12.7397C216.63 8.80277 216.631 4.86582 216.633 0.928878C216.633 0.686169 216.64 0.441971 216.659 0.199262C216.663 0.14268 216.719 0.0860972 216.758 0.0339818C216.803 -0.0270677 216.956 -0.00175446 217.045 0.0771631C217.203 0.21713 217.362 0.354119 217.514 0.498553C217.946 0.911009 218.373 1.32644 218.806 1.73741C221.246 4.05729 223.686 6.37717 226.129 8.69556C227.835 10.3126 229.543 11.9252 231.251 13.5408C232.932 15.1326 234.592 16.7452 236.301 18.3071C238.062 19.9182 239.759 21.5934 241.492 23.2328C243.303 24.9437 245.109 26.6575 246.92 28.3669C247.404 28.824 247.913 29.2558 248.391 29.7189C249.205 30.5066 249.099 30.2669 249.103 31.3375C249.109 33.3581 249.105 35.3786 249.105 37.3992C249.1 37.3992 249.096 37.3992 249.091 37.3992" fill="#17233B" fill-opacity="0.7"/>
</svg>
