<svg width="181" height="55" viewBox="0 0 181 55" fill="none" xmlns="http://www.w3.org/2000/svg">
<path d="M39.5938 28.7568C39.6944 28.7577 39.7976 28.769 39.8965 28.7871C39.9288 28.7933 39.9664 28.8334 39.9795 28.8662C40.0013 28.9214 40.0148 28.9825 40.0166 29.042C40.021 29.2234 40.0195 29.4065 40.0195 29.5879C40.0195 33.3486 40.0196 37.1094 40.0205 40.8701C40.0205 41.518 40.0612 42.1629 40.2021 42.7979C40.6915 44.9971 41.9267 46.654 43.9131 47.7588C44.6668 48.1785 45.4785 48.4539 46.3232 48.6396C47.5137 48.9013 48.7199 48.9478 49.9287 48.8545C50.974 48.7733 51.9942 48.5567 52.9668 48.1533C54.6939 47.4372 56.0188 46.287 56.8662 44.626C57.3994 43.5808 57.6744 42.4673 57.6797 41.2969C57.6884 39.4165 57.6827 37.5357 57.6836 35.6553C57.6836 33.553 57.6828 31.4508 57.6846 29.3477C57.6846 29.187 57.6973 29.0259 57.7148 28.8652C57.7175 28.835 57.7645 28.7902 57.7969 28.7842C57.8966 28.7669 57.9991 28.7577 58.1006 28.7568H63.0176C63.1603 28.7568 63.3053 28.7612 63.4463 28.7793C63.503 28.7864 63.5589 28.8342 63.5625 28.9014C63.5721 29.0826 63.582 29.2641 63.582 29.4453C63.5829 31.3456 63.582 33.2463 63.582 35.1475C63.582 37.23 63.5939 39.3129 63.5781 41.3945C63.565 43.2362 63.1906 45.0094 62.4229 46.6904C61.1386 49.5071 59.0689 51.5906 56.3018 53.0098C54.8549 53.7516 53.3188 54.224 51.71 54.4883C50.4503 54.6956 49.1841 54.7617 47.9131 54.6943C45.2736 54.5535 42.783 53.8873 40.5156 52.5146C37.9316 50.9512 36.0698 48.7841 34.9922 45.9805C34.5177 44.7445 34.2323 43.4649 34.1719 42.1416C34.1482 41.6164 34.1297 41.0905 34.1279 40.5645C34.1227 38.9674 34.126 37.3704 34.126 35.7734C34.126 33.6709 34.1252 31.5673 34.127 29.4648C34.127 29.2836 34.137 29.1022 34.1475 28.9209C34.151 28.8414 34.229 28.7692 34.3096 28.7666C34.4521 28.7614 34.5957 28.7568 34.7383 28.7568H39.5938ZM0.270508 28.7686C0.475225 28.7642 0.679073 28.7568 0.883789 28.7568C7.15377 28.756 13.4234 28.7559 19.6934 28.7559C20.2255 28.7559 20.7559 28.7734 21.2871 28.833C23.0389 29.0308 24.6203 29.6513 26.0166 30.7061C27.9521 32.1676 29.1674 34.091 29.6025 36.4561C30.3721 40.6352 28.2499 44.7016 24.3848 46.5605C24.2011 46.6486 24.0156 46.7331 23.8311 46.8203C23.7794 46.8445 23.7622 46.9224 23.7998 46.9717C23.8856 47.0839 23.9704 47.198 24.0605 47.3076C25.9086 49.5509 27.7575 51.7928 29.6064 54.0361C29.7351 54.1925 29.8628 54.3512 29.9854 54.5127C30.0054 54.5395 30.0094 54.5911 29.998 54.623C29.9876 54.6532 29.9487 54.6916 29.9189 54.6953C29.7973 54.7065 29.6733 54.71 29.5508 54.71C27.42 54.7108 25.289 54.7109 23.1582 54.7109C23.0558 54.7109 22.953 54.7061 22.8506 54.7061C22.7396 54.7068 22.6571 54.6553 22.5889 54.5742C22.5241 54.4965 22.4584 54.4176 22.3945 54.3398C20.6376 52.2055 18.8819 50.0718 17.125 47.9375C17.048 47.8433 16.9677 47.7504 16.8906 47.6562C16.8224 47.5744 16.7363 47.526 16.6279 47.5234C16.4845 47.5208 16.3407 47.5186 16.1973 47.5186C13.0423 47.5177 9.88737 47.5177 6.73242 47.5186C6.58897 47.5186 6.44619 47.5211 6.30273 47.5254C6.18381 47.5297 6.0981 47.601 6.0918 47.7002C6.08567 47.7805 6.08281 47.8621 6.08105 47.9424C6.07755 48.2257 6.07314 48.5095 6.07227 48.792V53.8867C6.07227 54.0689 6.07516 54.2513 6.06641 54.4326C6.06025 54.581 6.02559 54.6892 5.80176 54.6875C5.67832 54.6866 5.55518 54.6885 5.43262 54.6885C3.8552 54.6885 2.27664 54.6893 0.699219 54.6885C0.556608 54.6885 0.413016 54.6811 0.269531 54.6768C0.180269 54.688 0.0901363 54.6987 0 54.71V28.7363C0.0901714 28.7467 0.180336 28.7582 0.270508 28.7686ZM74.4746 28.7559C74.6284 28.7542 74.7537 28.8049 74.8604 28.9092C74.933 28.9808 75.0067 29.0512 75.0811 29.1211C78.5128 32.3699 81.9434 35.6193 85.376 38.8672C87.9209 41.2755 90.4669 43.6823 93.0127 46.0889C93.1309 46.2003 93.2539 46.3083 93.3799 46.4102C93.4019 46.4271 93.4555 46.4109 93.4912 46.4023C93.5042 46.3985 93.516 46.3716 93.5186 46.3545C93.5299 46.2949 93.5431 46.2353 93.5439 46.1758C93.5474 45.9944 93.5459 45.8121 93.5459 45.6299C93.5459 40.2699 93.546 34.9097 93.5469 29.5488C93.5469 29.3467 93.5527 29.1446 93.5605 28.9434C93.5649 28.838 93.648 28.7652 93.7627 28.7617C93.8649 28.7583 93.9671 28.7568 94.0693 28.7568C95.688 28.7568 97.3082 28.7561 98.9277 28.7578C99.0501 28.7578 99.1724 28.7684 99.2939 28.7744C99.3673 28.7779 99.4019 28.8341 99.4238 28.8867C99.4466 28.9411 99.4503 29.0058 99.4512 29.0654C99.4555 29.2476 99.4541 29.4301 99.4541 29.6123V53.8848C99.4532 54.1066 99.4454 54.3289 99.4375 54.5508C99.4354 54.6206 99.3477 54.6985 99.2744 54.7021C99.172 54.7065 99.0692 54.71 98.9668 54.71C97.307 54.7108 95.646 54.7109 93.9854 54.7109C93.8831 54.7109 93.7809 54.7086 93.6787 54.7061C93.5948 54.7043 93.5191 54.6758 93.457 54.6182C93.3677 54.5352 93.2769 54.452 93.1885 54.3682C90.1682 51.515 87.1482 48.6606 84.1279 45.8066C81.1523 42.995 78.1774 40.1823 75.1982 37.374C75.0758 37.2583 74.9889 37.0673 74.7666 37.0967C74.6372 37.2347 74.6991 37.4058 74.6992 37.5586C74.6948 43.0205 74.6962 48.4823 74.6953 53.9434C74.6953 54.1454 74.6876 54.3476 74.6797 54.5488C74.6769 54.6248 74.5983 54.6967 74.5195 54.7002C74.3962 54.7054 74.2738 54.71 74.1514 54.71C72.5519 54.7108 70.9531 54.7109 69.3545 54.7109C69.2312 54.7109 69.1088 54.7083 68.9863 54.7031C68.8813 54.6988 68.8072 54.6175 68.8037 54.5C68.7985 54.3385 68.7949 54.177 68.7949 54.0146V29.6211C68.7949 29.4389 68.7934 29.2564 68.7969 29.0742C68.8022 28.8094 68.852 28.7587 69.125 28.7578C70.5396 28.7561 71.9536 28.7568 73.3682 28.7568C73.7366 28.7568 74.1062 28.7602 74.4746 28.7559ZM138.724 28.9385C138.806 28.9972 138.883 29.0648 138.957 29.1348C140.684 30.7466 142.41 32.359 144.136 33.9717C144.24 34.0693 144.344 34.1673 144.438 34.2744C144.475 34.3167 144.5 34.3807 144.505 34.4375C144.511 34.4974 144.513 34.5577 144.514 34.6182V54.1514C144.514 54.2524 144.514 54.354 144.512 54.4551C144.506 54.6454 144.448 54.701 144.252 54.708C144.211 54.7097 144.169 54.71 144.128 54.71H138.965C138.884 54.7091 138.798 54.7148 138.721 54.6934C138.672 54.6796 138.619 54.6295 138.595 54.582C138.569 54.5311 138.569 54.4639 138.567 54.4043C138.564 54.2221 138.564 54.0397 138.564 53.8584V41.7871C138.564 37.7228 138.565 33.658 138.565 29.5938C138.565 29.3926 138.578 29.1914 138.587 28.9902C138.588 28.973 138.601 28.9433 138.613 28.9404C138.649 28.9335 138.699 28.9213 138.724 28.9385ZM156.071 28.7578C156.177 28.7587 156.273 28.7909 156.351 28.8643C156.47 28.9748 156.59 29.085 156.708 29.1973C162.196 34.3914 167.685 39.5871 173.173 44.7812C173.75 45.3262 174.335 45.8646 174.916 46.4053C174.958 46.4441 175.053 46.4141 175.061 46.3623C175.07 46.3027 175.088 46.2441 175.089 46.1846C175.093 46.0023 175.092 45.8209 175.092 45.6387V29.6182C175.092 29.4368 175.092 29.2545 175.094 29.0723C175.096 28.7648 175.184 28.7578 175.421 28.7578C176.794 28.7544 178.167 28.755 179.541 28.7559C179.93 28.7559 180.32 28.7553 180.709 28.7588C180.769 28.7597 180.833 28.7685 180.889 28.79C180.922 28.8021 180.954 28.8424 180.966 28.877C180.985 28.933 180.995 28.9952 180.997 29.0547C181.001 29.2162 181 29.3786 181 29.541V53.9336C181 54.1356 180.992 54.338 180.985 54.54C180.983 54.6195 180.906 54.6939 180.828 54.6982C180.727 54.7043 180.625 54.7099 180.522 54.71C178.842 54.7108 177.16 54.7108 175.479 54.71C175.398 54.71 175.316 54.7077 175.234 54.7051C175.15 54.7034 175.073 54.6809 175.01 54.623C174.921 54.5402 174.83 54.4577 174.741 54.374C171.736 51.5348 168.731 48.6946 165.726 45.8545C162.735 43.029 159.744 40.2026 156.754 37.3779C156.651 37.2804 156.544 37.1857 156.432 37.0977C156.408 37.0787 156.35 37.0773 156.321 37.0928C156.291 37.1083 156.258 37.1527 156.257 37.1855C156.246 37.3876 156.242 37.5899 156.242 37.792C156.241 43.1716 156.241 48.5521 156.24 53.9326C156.24 54.1337 156.235 54.3361 156.228 54.5381C156.225 54.6193 156.152 54.6939 156.075 54.6982C155.994 54.7034 155.911 54.71 155.83 54.71C154.128 54.71 152.427 54.7098 150.726 54.709C150.645 54.709 150.563 54.6963 150.481 54.6885C150.409 54.6805 150.37 54.6218 150.363 54.5684C150.346 54.4285 150.342 54.2862 150.342 54.1455C150.34 53.0736 150.341 52.0016 150.341 50.9297V41.7061C150.341 37.6401 150.34 33.5747 150.342 29.5088C150.342 28.8756 150.298 28.7699 150.625 28.7559H155.58C155.744 28.7559 155.908 28.757 156.071 28.7578ZM124.304 28.7539C125.105 28.7539 125.9 28.813 126.686 28.9736C130.193 29.6915 133.032 32.3094 133.95 35.7266C134.151 36.4737 134.269 37.2351 134.269 38.0039C134.266 40.7515 133.275 43.0951 131.237 44.9824C129.823 46.2911 128.136 47.0761 126.229 47.3896C125.644 47.4855 125.05 47.5214 124.453 47.5205C120.109 47.5153 115.765 47.5176 111.421 47.5176C111.236 47.5176 111.051 47.5173 110.867 47.5225C110.807 47.5233 110.743 47.5331 110.688 47.5547C110.654 47.5677 110.613 47.6097 110.61 47.6416C110.596 47.8013 110.588 47.9626 110.588 48.124C110.587 50.0452 110.587 51.9666 110.587 53.8877C110.587 54.069 110.588 54.2514 110.584 54.4336C110.58 54.6156 110.51 54.6804 110.322 54.6865C110.281 54.6882 110.239 54.6885 110.198 54.6885C108.497 54.6893 106.797 54.6893 105.097 54.6885C105.015 54.6885 104.933 54.6799 104.852 54.6738C104.78 54.6678 104.706 54.5882 104.7 54.5088C104.696 54.4492 104.69 54.3886 104.69 54.3281C104.689 54.1658 104.688 54.0043 104.688 53.8428V41.709C104.688 37.6241 104.689 33.5389 104.689 29.4541C104.689 28.7005 104.619 28.7558 105.368 28.7559C111.68 28.7559 117.993 28.7574 124.304 28.7539ZM6.29199 34.417C6.15295 34.4205 6.08134 34.5013 6.0752 34.6523C6.07169 34.7534 6.07031 34.855 6.07031 34.9561C6.07031 37.0791 6.06944 39.2021 6.07031 41.3252C6.07031 41.447 6.0759 41.5685 6.08203 41.6895C6.08574 41.7705 6.15827 41.8508 6.2334 41.8535C6.41724 41.8613 6.60131 41.8683 6.78516 41.8691H19.8184C20.0231 41.8691 20.2288 41.8679 20.4326 41.8584C20.5761 41.8515 20.7203 41.8398 20.8594 41.8096C22.633 41.4269 23.7407 39.9408 23.8467 38.3809C23.9185 37.3192 23.5689 36.3841 22.8467 35.6006C22.1385 34.8329 21.2535 34.4136 20.1865 34.4102H6.8457C6.66186 34.4102 6.47671 34.4118 6.29199 34.417ZM110.945 34.4111C110.884 34.412 110.823 34.4177 110.762 34.4229C110.68 34.4299 110.603 34.501 110.6 34.5752C110.593 34.6969 110.589 34.8177 110.589 34.9385C110.588 37.0617 110.589 39.1853 110.588 41.3086C110.588 41.8951 110.568 41.8672 111.159 41.8672H117.921C120.052 41.8672 122.183 41.8671 124.314 41.8662C124.539 41.8662 124.766 41.8672 124.99 41.8525C125.153 41.8422 125.316 41.8193 125.475 41.7822C127.501 41.3088 128.637 39.2689 128.315 37.5508C128.107 36.4315 127.532 35.5679 126.574 34.9512C126.05 34.6135 125.469 34.4271 124.838 34.4141C124.633 34.4098 124.428 34.4102 124.224 34.4102H111.376C111.232 34.4102 111.088 34.4094 110.945 34.4111Z" fill="white"/>
<path fill-rule="evenodd" clip-rule="evenodd" d="M144.505 21.6964C144.505 22.9696 144.505 24.2429 144.506 25.5153C144.506 25.5663 144.487 25.5948 144.434 25.5965C144.416 25.5974 144.396 25.5965 144.377 25.5913C144.359 25.5853 144.339 25.5766 144.324 25.5637C144.277 25.5248 144.232 25.4842 144.187 25.4419C143.079 24.3932 141.971 23.3437 140.862 22.2941C139.754 21.2454 138.647 20.1959 137.537 19.1472C136.606 18.2661 135.674 17.3868 134.741 16.5065C133.75 15.5702 132.76 14.6329 131.769 13.6965C130.823 12.8025 129.876 11.9084 128.929 11.0135C127.983 10.1195 127.033 9.22801 126.09 8.32964C125.626 7.88823 125.676 7.99621 125.675 7.39067C125.673 5.10674 125.674 2.8228 125.675 0.538868C125.675 0.398066 125.679 0.2564 125.69 0.115598C125.693 0.0827725 125.725 0.0499474 125.748 0.0197138C125.774 -0.0157027 125.862 -0.00101781 125.914 0.0447645C126.006 0.125963 126.098 0.205435 126.186 0.289225C126.437 0.528502 126.684 0.769507 126.936 1.00792C128.351 2.35375 129.767 3.69958 131.184 5.04454C132.173 5.98265 133.164 6.91816 134.156 7.8554C135.131 8.77882 136.094 9.71434 137.085 10.6205C138.106 11.5551 139.091 12.5269 140.096 13.478C141.147 14.4705 142.195 15.4648 143.245 16.4564C143.526 16.7216 143.821 16.9721 144.099 17.2408C144.571 17.6977 144.509 17.5587 144.512 18.1797C144.516 19.352 144.513 20.5242 144.513 21.6964C144.51 21.6964 144.508 21.6964 144.505 21.6964" fill="white" fill-opacity="0.7"/>
</svg>
