<svg width="16" height="16" viewBox="0 0 16 16" fill="none" xmlns="http://www.w3.org/2000/svg">
<path d="M13.3564 12.5077C14.5204 11.1436 15.1808 9.41323 15.1808 7.59064C15.181 3.39813 11.7829 0 7.59059 0C3.39831 0 0 3.39833 0 7.59044C0 11.7827 3.39831 15.1813 7.59039 15.1813C8.34156 15.1819 9.08866 15.071 9.80726 14.8522C10.1223 14.754 10.2989 14.4199 10.2027 14.1042C10.1064 13.7886 9.77341 13.6099 9.45718 13.7042C8.85205 13.8883 8.22293 13.9816 7.59039 13.981C4.06125 13.9808 1.20025 11.1198 1.20025 7.59044C1.20025 4.06128 4.06125 1.20026 7.59039 1.20026C11.1197 1.20026 13.9809 4.06128 13.9809 7.59044C13.9809 9.2648 13.3174 10.8479 12.1591 12.0412C11.895 12.3132 11.8983 12.7469 12.1664 13.015L14.9789 15.8276C15.2138 16.0588 15.5911 16.0573 15.8242 15.8243C16.0572 15.5913 16.0588 15.214 15.8277 14.979L13.3564 12.5077Z" fill="white"/>
</svg>
