<svg width="22" height="22" viewBox="0 0 22 22" fill="none" xmlns="http://www.w3.org/2000/svg">
<path d="M14.2708 7.91816C14.4859 7.91816 14.6981 7.93391 14.9083 7.95675C14.3358 5.31825 11.4845 3.35742 8.23036 3.35742C4.59191 3.35742 1.61133 5.81164 1.61133 8.92776C1.61133 10.7262 2.60316 12.2033 4.25996 13.3489L3.59806 15.3197L5.91168 14.1712C6.74008 14.3331 7.40398 14.5001 8.23036 14.5001C8.43796 14.5001 8.64352 14.49 8.8481 14.4738C8.71865 14.0362 8.64352 13.5774 8.64352 13.1017C8.64355 10.2404 11.1267 7.91816 14.2708 7.91816ZM10.7125 6.1421C11.2109 6.1421 11.5409 6.46695 11.5409 6.95983C11.5409 7.45067 11.2109 7.77959 10.7125 7.77959C10.2161 7.77959 9.71862 7.45067 9.71862 6.95983C9.71862 6.46695 10.2161 6.1421 10.7125 6.1421ZM6.08019 7.77957C5.58375 7.77957 5.08326 7.45065 5.08326 6.95981C5.08326 6.46693 5.58375 6.14208 6.08019 6.14208C6.57609 6.14208 6.90655 6.46693 6.90655 6.95981C6.90655 7.45067 6.57609 7.77957 6.08019 7.77957ZM20.3121 13.0231C20.3121 10.4044 17.664 8.26993 14.69 8.26993C11.5409 8.26993 9.06078 10.4044 9.06078 13.0231C9.06078 15.6455 11.5409 17.7754 14.69 17.7754C15.3489 17.7754 16.0138 17.6119 16.6757 17.4475L18.4914 18.4312L17.9934 16.7947C19.3224 15.808 20.3121 14.5001 20.3121 13.0231ZM12.8647 12.2033C12.5353 12.2033 12.2028 11.8789 12.2028 11.548C12.2028 11.2216 12.5353 10.8932 12.8647 10.8932C13.3652 10.8932 13.6931 11.2216 13.6931 11.548C13.6931 11.8789 13.3652 12.2033 12.8647 12.2033ZM16.5052 12.2033C16.1783 12.2033 15.8478 11.8789 15.8478 11.548C15.8478 11.2216 16.1783 10.8932 16.5052 10.8932C17.0016 10.8932 17.3336 11.2216 17.3336 11.548C17.3336 11.8789 17.0016 12.2033 16.5052 12.2033Z" fill="white"/>
</svg>
