<svg width="32" height="32" viewBox="0 0 32 32" fill="none" xmlns="http://www.w3.org/2000/svg">
<path d="M25.9999 20.9201V23.9201C26.0011 24.1986 25.944 24.4743 25.8324 24.7294C25.7209 24.9846 25.5572 25.2137 25.352 25.402C25.1468 25.5902 24.9045 25.7336 24.6407 25.8228C24.3769 25.912 24.0973 25.9452 23.8199 25.9201C20.7428 25.5857 17.7869 24.5342 15.1899 22.8501C12.7738 21.3148 10.7253 19.2663 9.18993 16.8501C7.49991 14.2413 6.44818 11.2711 6.11993 8.1801C6.09494 7.90356 6.12781 7.62486 6.21643 7.36172C6.30506 7.09859 6.4475 6.85679 6.6347 6.65172C6.82189 6.44665 7.04974 6.28281 7.30372 6.17062C7.55771 6.05843 7.83227 6.00036 8.10993 6.0001H11.1099C11.5952 5.99532 12.0657 6.16718 12.4337 6.48363C12.8017 6.80008 13.042 7.23954 13.1099 7.7201C13.2366 8.68016 13.4714 9.62282 13.8099 10.5301C13.9445 10.888 13.9736 11.277 13.8938 11.651C13.8141 12.0249 13.6288 12.3682 13.3599 12.6401L12.0899 13.9101C13.5135 16.4136 15.5864 18.4865 18.0899 19.9101L19.3599 18.6401C19.6318 18.3712 19.9751 18.1859 20.3491 18.1062C20.723 18.0264 21.112 18.0556 21.4699 18.1901C22.3772 18.5286 23.3199 18.7635 24.2799 18.8901C24.7657 18.9586 25.2093 19.2033 25.5265 19.5776C25.8436 19.9519 26.0121 20.4297 25.9999 20.9201Z" stroke="#A38A77" stroke-linecap="round"/>
</svg>
