<svg width="115" height="115" viewBox="0 0 115 115" fill="none" xmlns="http://www.w3.org/2000/svg">
<rect width="115" height="115" rx="57.5" fill="white"/>
<path d="M32.124 53.6182C32.1751 53.6186 32.2272 53.6236 32.2773 53.6328C32.2937 53.6359 32.3125 53.6563 32.3193 53.6729C32.3304 53.7009 32.337 53.7324 32.3379 53.7627C32.3401 53.8549 32.3398 53.9478 32.3398 54.04C32.3398 55.9517 32.3404 57.8637 32.3408 59.7754C32.3408 60.1046 32.361 60.4323 32.4326 60.7549C32.6814 61.8725 33.3089 62.7149 34.3184 63.2764C34.7015 63.4898 35.1145 63.6292 35.5439 63.7236C36.1491 63.8567 36.7625 63.8804 37.377 63.833C37.9082 63.7917 38.4266 63.6816 38.9209 63.4766C39.7987 63.1126 40.4716 62.5278 40.9023 61.6836C41.1733 61.1524 41.3137 60.587 41.3164 59.9922C41.3209 59.0363 41.3179 58.0799 41.3184 57.124C41.3184 56.0555 41.3175 54.9869 41.3184 53.918C41.3184 53.8363 41.3251 53.7545 41.334 53.6729C41.3353 53.6575 41.3595 53.6349 41.376 53.6318C41.4266 53.6231 41.4787 53.6186 41.5303 53.6182C41.8217 53.6168 42.1139 53.6172 42.4053 53.6172C42.9466 53.6172 43.488 53.6173 44.0293 53.6182C44.1018 53.6182 44.1755 53.6197 44.2471 53.6289C44.276 53.6324 44.3049 53.6572 44.3066 53.6914C44.3115 53.7835 44.3164 53.8757 44.3164 53.9678C44.3169 54.9337 44.3164 55.8998 44.3164 56.8662C44.3164 57.9246 44.3225 58.983 44.3145 60.041C44.3078 60.9771 44.1178 61.879 43.7275 62.7334C43.0747 64.165 42.0227 65.224 40.6162 65.9453C39.8808 66.3224 39.1 66.5629 38.2822 66.6973C37.6419 66.8026 36.9977 66.836 36.3516 66.8018C35.0101 66.7302 33.7442 66.391 32.5918 65.6934C31.2784 64.8987 30.3319 63.7971 29.7842 62.3721C29.543 61.7438 29.3979 61.0935 29.3672 60.4209C29.3552 60.1539 29.3466 59.8865 29.3457 59.6191C29.343 58.8074 29.3447 57.9953 29.3447 57.1836C29.3447 56.1151 29.3438 55.0461 29.3447 53.9775C29.3447 53.8854 29.3501 53.7933 29.3555 53.7012C29.3572 53.6608 29.3966 53.6244 29.4375 53.623C29.5099 53.6204 29.5828 53.6172 29.6553 53.6172C30.0094 53.6167 30.3636 53.6172 30.7178 53.6172C31.1863 53.6172 31.6555 53.6173 32.124 53.6182ZM91.3281 53.6191C91.382 53.6196 91.4311 53.6355 91.4707 53.6729C91.5312 53.7291 91.5923 53.7857 91.6523 53.8428C94.4418 56.4828 97.231 59.1236 100.021 61.7637C100.314 62.0407 100.611 62.315 100.906 62.5898C100.928 62.6096 100.976 62.5937 100.98 62.5674C100.985 62.5371 100.995 62.5068 100.995 62.4766C100.997 62.3841 100.996 62.2917 100.996 62.1992V54.0566C100.996 53.9645 100.996 53.8719 100.997 53.7793C100.998 53.6231 101.043 53.6191 101.163 53.6191C101.861 53.6174 102.56 53.6177 103.258 53.6182C103.456 53.6182 103.654 53.6184 103.852 53.6201C103.882 53.6206 103.914 53.6248 103.942 53.6357C103.959 53.6419 103.975 53.6622 103.981 53.6797C103.991 53.7082 103.996 53.7402 103.997 53.7705C103.999 53.8524 103.999 53.9343 103.999 54.0166V66.416C103.999 66.5185 103.996 66.6211 103.992 66.7236C103.991 66.764 103.952 66.8025 103.912 66.8047C103.86 66.8078 103.808 66.8105 103.756 66.8105C102.902 66.811 102.048 66.811 101.193 66.8105C101.152 66.8105 101.11 66.8089 101.068 66.8076C101.026 66.8067 100.987 66.7957 100.955 66.7666C100.91 66.7245 100.863 66.6822 100.818 66.6396C99.2908 65.1965 97.7629 63.7532 96.2354 62.3096C94.7153 60.8734 93.1949 59.4367 91.6748 58.001C91.6224 57.9515 91.5685 57.9031 91.5117 57.8584C91.4997 57.8487 91.4698 57.8476 91.4551 57.8555C91.4396 57.8633 91.4236 57.8857 91.4229 57.9023C91.4175 58.0051 91.415 58.1082 91.415 58.2109C91.4146 60.9453 91.4145 63.6802 91.4141 66.415C91.4141 66.5173 91.4108 66.6209 91.4072 66.7236C91.4057 66.7647 91.3691 66.8025 91.3301 66.8047C91.2889 66.8073 91.2472 66.8105 91.2061 66.8105C90.3411 66.8105 89.4762 66.81 88.6113 66.8096C88.5704 66.8096 88.5287 66.8038 88.4873 66.7998C88.4504 66.7959 88.4303 66.7655 88.4268 66.7383C88.4179 66.6672 88.416 66.5949 88.416 66.5234V53.7598C88.4218 53.6484 88.4492 53.6229 88.5596 53.6182H91.0781C91.1612 53.6182 91.245 53.6187 91.3281 53.6191ZM49.8525 53.6172C49.9308 53.6163 49.9946 53.6422 50.0488 53.6953C50.0858 53.7317 50.1233 53.7672 50.1611 53.8027C51.9054 55.4541 53.6488 57.106 55.3936 58.7568C56.687 59.9809 57.9815 61.2036 59.2754 62.4268C59.3355 62.4834 59.3978 62.539 59.4619 62.5908C59.4731 62.5995 59.5004 62.5913 59.5186 62.5869C59.5252 62.5851 59.5308 62.5713 59.5322 62.5625C59.538 62.5323 59.5444 62.5019 59.5449 62.4717C59.5467 62.3796 59.5469 62.2869 59.5469 62.1943C59.5469 59.47 59.5464 56.7453 59.5469 54.0205C59.5469 53.9179 59.5497 53.8151 59.5537 53.7129C59.5559 53.6594 59.5981 53.622 59.6562 53.6201C59.7083 53.6184 59.7605 53.6172 59.8125 53.6172C60.6353 53.6172 61.459 53.6173 62.2822 53.6182C62.3444 53.6182 62.407 53.6229 62.4688 53.626C62.5057 53.6279 62.5231 53.657 62.5342 53.6836C62.5457 53.7113 62.5474 53.7441 62.5479 53.7744C62.5501 53.8671 62.5498 53.9601 62.5498 54.0527V66.3896C62.5494 66.5025 62.545 66.6157 62.541 66.7285C62.5399 66.764 62.4953 66.8039 62.458 66.8057C62.406 66.8079 62.3538 66.8096 62.3018 66.8096C61.4581 66.81 60.6136 66.8096 59.7695 66.8096C59.7176 66.8096 59.6652 66.8089 59.6133 66.8076C59.5708 66.8066 59.5325 66.792 59.501 66.7627C59.4557 66.7206 59.4101 66.6783 59.3652 66.6357C57.8301 65.1856 56.2949 63.7348 54.7598 62.2842C53.2473 60.8551 51.7349 59.4254 50.2207 57.998C50.1584 57.9392 50.114 57.8415 50.001 57.8564C49.9351 57.9267 49.9668 58.0141 49.9668 58.0918C49.9646 60.868 49.9653 63.6441 49.9648 66.4199C49.9648 66.5225 49.961 66.6254 49.957 66.7275C49.9556 66.7661 49.9159 66.8028 49.876 66.8047C49.8132 66.8073 49.7508 66.8096 49.6885 66.8096C48.8755 66.81 48.0625 66.8096 47.25 66.8096C47.1875 66.8096 47.1255 66.8083 47.0635 66.8057C47.0102 66.8035 46.9716 66.7627 46.9697 66.7031C46.9671 66.621 46.9658 66.5386 46.9658 66.4561V54.0576C46.9658 53.965 46.965 53.8719 46.9668 53.7793C46.9695 53.6445 46.995 53.6186 47.1338 53.6182C47.8527 53.6173 48.5711 53.6172 49.29 53.6172C49.4773 53.6172 49.6652 53.6194 49.8525 53.6172ZM12.1367 53.6221C12.2407 53.6199 12.3443 53.6162 12.4482 53.6162C15.6352 53.6158 18.8219 53.6152 22.0088 53.6152C22.2793 53.6152 22.5492 53.624 22.8193 53.6543C23.7096 53.7548 24.513 54.0705 25.2227 54.6064C26.2065 55.3493 26.8247 56.3272 27.0459 57.5293C27.437 59.6535 26.3581 61.7201 24.3936 62.665C24.3002 62.7098 24.2061 62.7535 24.1123 62.7979C24.0861 62.8101 24.0775 62.849 24.0967 62.874C24.1402 62.931 24.1828 62.9893 24.2285 63.0449C25.1679 64.1852 26.1081 65.3246 27.0479 66.4648C27.1132 66.5443 27.178 66.625 27.2402 66.707C27.2505 66.7206 27.2529 66.7474 27.2471 66.7637C27.2417 66.779 27.2212 66.7981 27.2061 66.7998C27.1443 66.8055 27.0817 66.8076 27.0195 66.8076C25.9366 66.8081 24.8535 66.8076 23.7705 66.8076C23.7186 66.8076 23.6662 66.8057 23.6143 66.8057C23.5577 66.8061 23.5152 66.7796 23.4805 66.7383C23.4476 66.6989 23.4142 66.6586 23.3818 66.6191C22.4888 65.5343 21.5961 64.4501 20.7031 63.3652C20.6641 63.3175 20.624 63.2704 20.585 63.2227C20.5503 63.181 20.5063 63.1557 20.4512 63.1543C20.3783 63.153 20.3053 63.1523 20.2324 63.1523C18.6287 63.1519 17.0246 63.1519 15.4209 63.1523C15.3479 63.1523 15.2751 63.1531 15.2021 63.1553C15.1418 63.1576 15.0988 63.1947 15.0957 63.2451C15.0926 63.2858 15.0907 63.3274 15.0898 63.3682C15.0881 63.512 15.0854 63.6564 15.085 63.7998V66.3887C15.085 66.4812 15.0865 66.5739 15.082 66.666C15.0789 66.7415 15.0619 66.7967 14.9482 66.7959C14.8856 66.7955 14.823 66.7969 14.7607 66.7969C13.9589 66.7969 13.1563 66.7973 12.3545 66.7969C12.282 66.7969 12.2087 66.7932 12.1357 66.791C12.0905 66.7967 12.0447 66.8019 11.999 66.8076V53.6055C12.0449 53.6107 12.0909 53.6168 12.1367 53.6221ZM82.5107 53.707C82.5525 53.7369 82.5911 53.7721 82.6289 53.8076C83.5068 54.6269 84.3847 55.4459 85.2617 56.2656C85.3147 56.3152 85.3674 56.3655 85.415 56.4199C85.434 56.4414 85.4466 56.4741 85.4492 56.5029C85.4549 56.5637 85.4541 56.6253 85.4541 56.6865V66.5225C85.4541 66.5737 85.4535 66.6255 85.4521 66.6768C85.449 66.7738 85.42 66.8022 85.3203 66.8057C85.2995 66.8065 85.2786 66.8066 85.2578 66.8066H82.5703C82.5493 66.8059 82.5284 66.8033 82.5088 66.7979C82.484 66.7907 82.4577 66.7653 82.4453 66.7412C82.4326 66.7153 82.4315 66.6815 82.4307 66.6514C82.4289 66.5588 82.4297 66.4662 82.4297 66.374V60.2383C82.4297 58.1726 82.4302 56.1067 82.4307 54.041C82.4307 53.9387 82.437 53.8357 82.4414 53.7334C82.442 53.7246 82.4489 53.7103 82.4551 53.709C82.4732 53.7055 82.4983 53.6985 82.5107 53.707ZM75.1816 53.6133C75.5892 53.6133 75.993 53.6429 76.3926 53.7246C78.1755 54.0895 79.6181 55.4204 80.085 57.1572C80.1868 57.5369 80.2475 57.9238 80.2471 58.3145C80.2457 59.7111 79.742 60.9029 78.7061 61.8623C77.9874 62.5275 77.1293 62.9266 76.1602 63.0859C75.8626 63.1346 75.5611 63.1528 75.2578 63.1523C73.0498 63.1497 70.8408 63.1504 68.6328 63.1504C68.5392 63.1504 68.4457 63.1507 68.3525 63.1533C68.3218 63.1538 68.2888 63.1589 68.2607 63.1699C68.2439 63.1766 68.223 63.1977 68.2217 63.2139C68.2146 63.295 68.21 63.377 68.21 63.459C68.2095 64.4355 68.21 65.4122 68.21 66.3887C68.21 66.4808 68.2102 66.5735 68.208 66.666C68.2058 66.7585 68.1706 66.7918 68.0752 66.7949C68.0543 66.7958 68.0326 66.7959 68.0117 66.7959C67.1473 66.7963 66.2829 66.7963 65.4189 66.7959C65.3771 66.7959 65.3353 66.7912 65.2939 66.7881C65.2575 66.7849 65.2209 66.7444 65.2178 66.7041C65.2155 66.6738 65.2119 66.643 65.2119 66.6123C65.211 66.5298 65.2109 66.4473 65.2109 66.3652V60.1982C65.2109 58.1221 65.2115 56.0459 65.2119 53.9697C65.2119 53.5866 65.1763 53.6142 65.5566 53.6143C68.765 53.6143 71.9738 53.615 75.1816 53.6133ZM15.1982 56.4912C15.1278 56.4931 15.091 56.5347 15.0879 56.6113C15.0861 56.6627 15.0859 56.7143 15.0859 56.7656C15.0859 57.8447 15.0855 58.9238 15.0859 60.0029C15.0859 60.0648 15.0887 60.127 15.0918 60.1885C15.0938 60.2296 15.1308 60.2702 15.1689 60.2715C15.2624 60.2754 15.3558 60.2789 15.4492 60.2793H22.0732C22.1773 60.2793 22.2822 60.2792 22.3857 60.2744C22.4587 60.2709 22.5328 60.2654 22.6035 60.25C23.5048 60.0555 24.0671 59.2996 24.1211 58.5068C24.1576 57.9673 23.9803 57.492 23.6133 57.0938C23.2533 56.7034 22.8032 56.49 22.2607 56.4883H15.4795C15.3862 56.4883 15.292 56.4886 15.1982 56.4912ZM68.3916 56.4893C68.3607 56.4897 68.3298 56.4925 68.2988 56.4951C68.2574 56.4986 68.2176 56.5345 68.2158 56.5723C68.2127 56.6341 68.21 56.6955 68.21 56.7568C68.2095 57.8361 68.2104 58.9159 68.21 59.9951C68.21 60.2929 68.2003 60.2793 68.501 60.2793H71.9375C73.0206 60.2793 74.104 60.2788 75.1875 60.2783C75.3018 60.2783 75.4165 60.2789 75.5303 60.2715C75.613 60.2662 75.6968 60.2542 75.7773 60.2354C76.8072 59.9946 77.3839 58.9581 77.2207 58.085C77.1148 57.516 76.8226 57.0772 76.3359 56.7637C76.0694 56.592 75.774 56.4968 75.4531 56.4902C75.3491 56.488 75.2447 56.4883 75.1406 56.4883H68.6104C68.5374 56.4883 68.4641 56.4884 68.3916 56.4893Z" fill="#17233B"/>
<path fill-rule="evenodd" clip-rule="evenodd" d="M85.4496 50.028C85.4496 50.6752 85.4496 51.3224 85.4501 51.9691C85.4501 51.995 85.4403 52.0095 85.4136 52.0104C85.4042 52.0108 85.394 52.0104 85.3847 52.0078C85.3753 52.0047 85.3651 52.0003 85.3575 51.9937C85.3335 51.974 85.3108 51.9533 85.2881 51.9318C84.7248 51.3988 84.1614 50.8653 83.5981 50.3318C83.0347 49.7988 82.4718 49.2653 81.908 48.7323C81.4346 48.2845 80.9607 47.8375 80.4868 47.3901C79.983 46.9141 79.4798 46.4377 78.976 45.9618C78.495 45.5074 78.014 45.0529 77.5325 44.598C77.0515 44.1436 76.5687 43.6905 76.0895 43.2339C75.8536 43.0095 75.879 43.0644 75.8785 42.7566C75.8776 41.5957 75.8781 40.4348 75.8785 39.2739C75.8785 39.2023 75.8808 39.1303 75.8861 39.0588C75.8874 39.0421 75.9039 39.0254 75.9155 39.01C75.9288 38.992 75.9738 38.9995 76 39.0228C76.0467 39.064 76.0935 39.1044 76.1384 39.147C76.2657 39.2686 76.3916 39.3911 76.5193 39.5123C77.2388 40.1964 77.9584 40.8805 78.6788 41.5641C79.1816 42.0409 79.6853 42.5164 80.1891 42.9928C80.6848 43.4622 81.1743 43.9377 81.678 44.3983C82.1973 44.8733 82.6979 45.3673 83.2087 45.8507C83.7427 46.3552 84.2753 46.8606 84.8093 47.3646C84.9521 47.4994 85.1021 47.6267 85.2432 47.7633C85.483 47.9956 85.4519 47.9249 85.4532 48.2406C85.455 48.8364 85.4536 49.4322 85.4536 50.028C85.4523 50.028 85.451 50.028 85.4496 50.028Z" fill="#17233B" fill-opacity="0.7"/>
</svg>
