<svg width="54" height="54" viewBox="0 0 54 54" fill="none" xmlns="http://www.w3.org/2000/svg">
<path d="M25 28C25.4295 28.5741 25.9774 29.0491 26.6066 29.3929C27.2357 29.7367 27.9315 29.9411 28.6467 29.9923C29.3618 30.0435 30.0796 29.9403 30.7513 29.6897C31.4231 29.4392 32.0331 29.047 32.54 28.54L35.54 25.54C36.4508 24.597 36.9548 23.3339 36.9434 22.023C36.932 20.712 36.4061 19.4579 35.4791 18.5309C34.5521 17.6038 33.298 17.078 31.987 17.0666C30.676 17.0552 29.413 17.5592 28.47 18.47L26.75 20.18" stroke="#17233B" stroke-width="2" stroke-linecap="round" stroke-linejoin="round"/>
<path d="M29.0002 25.9992C28.5707 25.4251 28.0228 24.9501 27.3936 24.6063C26.7645 24.2626 26.0687 24.0581 25.3535 24.0069C24.6384 23.9557 23.9206 24.0589 23.2489 24.3095C22.5771 24.5601 21.9671 24.9522 21.4602 25.4592L18.4602 28.4592C17.5494 29.4023 17.0454 30.6653 17.0568 31.9763C17.0682 33.2872 17.5941 34.5413 18.5211 35.4683C19.4481 36.3954 20.7022 36.9212 22.0132 36.9326C23.3242 36.944 24.5872 36.44 25.5302 35.5292L27.2402 33.8192" stroke="#17233B" stroke-width="2" stroke-linecap="round" stroke-linejoin="round"/>
</svg>
